<?xml version='1.0' encoding='UTF-8'?>
<lmms-project version="1.0" creator="LMMS" creatorversion="1.2.2" type="song">
  <head bpm="140" timesig_numerator="4" timesig_denominator="4" mastervol="100" masterpitch="0"/>
  <song>
    <trackcontainer type="song" width="600" x="0" y="0" maximized="0" visible="1"><track name="808 Drums" muted="0" solo="0" type="0"><instrumenttrack vol="100" pan="0" pitch="0" pitchrange="1" fxch="0" basenote="57" usemasterpitch="1" firstkey="0" lastkey="127"><instrument name="sf2player"><sf2player src="/home/struktured/projects/lmms-ai/assets/soundfonts/HS TR-808 Drums.sf2" bank="0" patch="0" gain="1.2" reverbOn="0" reverbRoomSize="0.2" reverbDamping="0.0" reverbWidth="0.5" reverbLevel="0.9" chorusOn="0" chorusNum="3" chorusLevel="2.0" chorusSpeed="0.3" chorusDepth="8.0"/></instrument><eldata ftype="0" fcut="14000" fres="0.5" fwet="0"/><fxchain enabled="0" numofeffects="0"/><midiport readable="0" writable="0" inputchannel="0" outputchannel="1" basevelocity="127" fixedinputvelocity="-1" fixedoutputvelocity="-1" fixedoutputnote="-1"/></instrumenttrack><pattern name="808 Beat" type="1" muted="0" pos="0" len="1536"><note key="36" pos="0" len="24" vol="127" pan="0"/><note key="42" pos="48" len="12" vol="80" pan="0"/><note key="42" pos="96" len="12" vol="80" pan="0"/><note key="38" pos="144" len="24" vol="120" pan="0"/><note key="42" pos="192" len="12" vol="80" pan="0"/><note key="36" pos="216" len="24" vol="110" pan="0"/><note key="42" pos="240" len="12" vol="80" pan="0"/><note key="42" pos="288" len="12" vol="80" pan="0"/><note key="38" pos="336" len="24" vol="120" pan="0"/><note key="36" pos="384" len="24" vol="127" pan="0"/><note key="42" pos="432" len="12" vol="80" pan="0"/><note key="42" pos="480" len="12" vol="80" pan="0"/><note key="38" pos="528" len="24" vol="120" pan="0"/><note key="42" pos="576" len="12" vol="80" pan="0"/><note key="36" pos="600" len="24" vol="110" pan="0"/><note key="42" pos="624" len="12" vol="80" pan="0"/><note key="42" pos="672" len="12" vol="80" pan="0"/><note key="38" pos="720" len="24" vol="120" pan="0"/><note key="36" pos="768" len="24" vol="127" pan="0"/><note key="42" pos="816" len="12" vol="80" pan="0"/><note key="42" pos="864" len="12" vol="80" pan="0"/><note key="38" pos="912" len="24" vol="120" pan="0"/><note key="42" pos="960" len="12" vol="80" pan="0"/><note key="36" pos="984" len="24" vol="110" pan="0"/><note key="42" pos="1008" len="12" vol="80" pan="0"/><note key="42" pos="1056" len="12" vol="80" pan="0"/><note key="38" pos="1104" len="24" vol="120" pan="0"/><note key="49" pos="1128" len="12" vol="100" pan="0"/><note key="36" pos="1152" len="24" vol="127" pan="0"/><note key="42" pos="1200" len="12" vol="80" pan="0"/><note key="42" pos="1248" len="12" vol="80" pan="0"/><note key="38" pos="1296" len="24" vol="120" pan="0"/><note key="42" pos="1344" len="12" vol="80" pan="0"/><note key="36" pos="1368" len="24" vol="110" pan="0"/><note key="42" pos="1392" len="12" vol="80" pan="0"/><note key="42" pos="1440" len="12" vol="80" pan="0"/><note key="38" pos="1488" len="24" vol="127" pan="0"/></pattern></track><track name="Sub Bass" muted="0" solo="0" type="0"><instrumenttrack vol="100" pan="0" pitch="0" pitchrange="1" fxch="0" basenote="57" usemasterpitch="1" firstkey="0" lastkey="127"><instrument name="sf2player"><sf2player src="/home/struktured/projects/lmms-ai/assets/soundfonts/FluidR3_GM.sf2" bank="0" patch="38" gain="1.5" reverbOn="0" reverbRoomSize="0.2" reverbDamping="0.0" reverbWidth="0.5" reverbLevel="0.9" chorusOn="0" chorusNum="3" chorusLevel="2.0" chorusSpeed="0.3" chorusDepth="8.0"/></instrument><eldata ftype="0" fcut="14000" fres="0.5" fwet="0"/><fxchain enabled="0" numofeffects="0"/><midiport readable="0" writable="0" inputchannel="0" outputchannel="1" basevelocity="127" fixedinputvelocity="-1" fixedoutputvelocity="-1" fixedoutputnote="-1"/></instrumenttrack><pattern name="Sub" type="1" muted="0" pos="0" len="1536"><note key="29" pos="0" len="192" vol="127" pan="0"/><note key="29" pos="192" len="96" vol="120" pan="0"/><note key="31" pos="288" len="96" vol="120" pan="0"/><note key="32" pos="384" len="192" vol="127" pan="0"/><note key="32" pos="576" len="96" vol="120" pan="0"/><note key="31" pos="672" len="96" vol="120" pan="0"/><note key="29" pos="768" len="192" vol="127" pan="0"/><note key="29" pos="960" len="96" vol="120" pan="0"/><note key="27" pos="1056" len="96" vol="120" pan="0"/><note key="25" pos="1152" len="192" vol="127" pan="0"/><note key="24" pos="1344" len="192" vol="127" pan="0"/></pattern></track><track name="Wobble Lead" muted="0" solo="0" type="0"><instrumenttrack vol="100" pan="0" pitch="0" pitchrange="1" fxch="0" basenote="57" usemasterpitch="1" firstkey="0" lastkey="127"><instrument name="sf2player"><sf2player src="/home/struktured/projects/lmms-ai/assets/soundfonts/FluidR3_GM.sf2" bank="0" patch="81" gain="1.0" reverbOn="0" reverbRoomSize="0.2" reverbDamping="0.0" reverbWidth="0.5" reverbLevel="0.9" chorusOn="1" chorusNum="3" chorusLevel="2.0" chorusSpeed="0.3" chorusDepth="8.0"/></instrument><eldata ftype="0" fcut="14000" fres="0.5" fwet="0"/><fxchain enabled="0" numofeffects="0"/><midiport readable="0" writable="0" inputchannel="0" outputchannel="1" basevelocity="127" fixedinputvelocity="-1" fixedoutputvelocity="-1" fixedoutputnote="-1"/></instrumenttrack><pattern name="Wobble" type="1" muted="0" pos="0" len="1536"><note key="53" pos="0" len="24" vol="100" pan="0"/><note key="53" pos="24" len="24" vol="90" pan="0"/><note key="53" pos="48" len="12" vol="80" pan="0"/><note key="53" pos="60" len="12" vol="70" pan="0"/><note key="53" pos="72" len="24" vol="100" pan="0"/><note key="48" pos="96" len="24" vol="100" pan="0"/><note key="48" pos="120" len="12" vol="80" pan="0"/><note key="48" pos="132" len="12" vol="70" pan="0"/><note key="53" pos="144" len="48" vol="110" pan="0"/><note key="53" pos="192" len="24" vol="100" pan="0"/><note key="53" pos="216" len="12" vol="80" pan="0"/><note key="53" pos="228" len="12" vol="70" pan="0"/><note key="55" pos="240" len="24" vol="100" pan="0"/><note key="55" pos="264" len="24" vol="90" pan="0"/><note key="56" pos="288" len="24" vol="100" pan="0"/><note key="56" pos="312" len="12" vol="80" pan="0"/><note key="56" pos="324" len="12" vol="70" pan="0"/><note key="55" pos="336" len="48" vol="110" pan="0"/><note key="56" pos="384" len="24" vol="100" pan="0"/><note key="56" pos="408" len="24" vol="90" pan="0"/><note key="56" pos="432" len="12" vol="80" pan="0"/><note key="56" pos="444" len="12" vol="70" pan="0"/><note key="56" pos="456" len="24" vol="100" pan="0"/><note key="51" pos="480" len="24" vol="100" pan="0"/><note key="51" pos="504" len="12" vol="80" pan="0"/><note key="51" pos="516" len="12" vol="70" pan="0"/><note key="56" pos="528" len="48" vol="110" pan="0"/><note key="56" pos="576" len="24" vol="100" pan="0"/><note key="56" pos="600" len="12" vol="80" pan="0"/><note key="56" pos="612" len="12" vol="70" pan="0"/><note key="55" pos="624" len="24" vol="100" pan="0"/><note key="55" pos="648" len="24" vol="90" pan="0"/><note key="53" pos="672" len="24" vol="100" pan="0"/><note key="53" pos="696" len="12" vol="80" pan="0"/><note key="53" pos="708" len="12" vol="70" pan="0"/><note key="48" pos="720" len="48" vol="110" pan="0"/><note key="53" pos="768" len="24" vol="100" pan="0"/><note key="53" pos="792" len="24" vol="90" pan="0"/><note key="53" pos="816" len="12" vol="80" pan="0"/><note key="53" pos="828" len="12" vol="70" pan="0"/><note key="53" pos="840" len="24" vol="100" pan="0"/><note key="51" pos="864" len="24" vol="100" pan="0"/><note key="51" pos="888" len="12" vol="80" pan="0"/><note key="51" pos="900" len="12" vol="70" pan="0"/><note key="51" pos="912" len="48" vol="110" pan="0"/><note key="51" pos="960" len="24" vol="100" pan="0"/><note key="51" pos="984" len="12" vol="80" pan="0"/><note key="51" pos="996" len="12" vol="70" pan="0"/><note key="49" pos="1008" len="24" vol="100" pan="0"/><note key="49" pos="1032" len="24" vol="90" pan="0"/><note key="49" pos="1056" len="24" vol="100" pan="0"/><note key="49" pos="1080" len="12" vol="80" pan="0"/><note key="49" pos="1092" len="12" vol="70" pan="0"/><note key="48" pos="1104" len="48" vol="110" pan="0"/><note key="49" pos="1152" len="24" vol="100" pan="0"/><note key="49" pos="1176" len="24" vol="90" pan="0"/><note key="49" pos="1200" len="12" vol="80" pan="0"/><note key="49" pos="1212" len="12" vol="70" pan="0"/><note key="49" pos="1224" len="24" vol="100" pan="0"/><note key="44" pos="1248" len="24" vol="100" pan="0"/><note key="44" pos="1272" len="12" vol="80" pan="0"/><note key="44" pos="1284" len="12" vol="70" pan="0"/><note key="49" pos="1296" len="48" vol="110" pan="0"/><note key="48" pos="1344" len="24" vol="100" pan="0"/><note key="48" pos="1368" len="24" vol="90" pan="0"/><note key="48" pos="1392" len="12" vol="80" pan="0"/><note key="48" pos="1404" len="12" vol="70" pan="0"/><note key="48" pos="1416" len="24" vol="100" pan="0"/><note key="43" pos="1440" len="24" vol="100" pan="0"/><note key="43" pos="1464" len="24" vol="90" pan="0"/><note key="48" pos="1488" len="48" vol="127" pan="0"/></pattern></track><track name="Dark Pad" muted="0" solo="0" type="0"><instrumenttrack vol="100" pan="0" pitch="0" pitchrange="1" fxch="0" basenote="57" usemasterpitch="1" firstkey="0" lastkey="127"><instrument name="sf2player"><sf2player src="/home/struktured/projects/lmms-ai/assets/soundfonts/FluidR3_GM.sf2" bank="0" patch="89" gain="0.8" reverbOn="1" reverbRoomSize="0.2" reverbDamping="0.0" reverbWidth="0.5" reverbLevel="0.9" chorusOn="0" chorusNum="3" chorusLevel="2.0" chorusSpeed="0.3" chorusDepth="8.0"/></instrument><eldata ftype="0" fcut="14000" fres="0.5" fwet="0"/><fxchain enabled="0" numofeffects="0"/><midiport readable="0" writable="0" inputchannel="0" outputchannel="1" basevelocity="127" fixedinputvelocity="-1" fixedoutputvelocity="-1" fixedoutputnote="-1"/></instrumenttrack><pattern name="Atmosphere" type="1" muted="0" pos="0" len="1536"><note key="53" pos="0" len="384" vol="60" pan="0"/><note key="56" pos="0" len="384" vol="60" pan="0"/><note key="60" pos="0" len="384" vol="60" pan="0"/><note key="56" pos="384" len="384" vol="60" pan="0"/><note key="60" pos="384" len="384" vol="60" pan="0"/><note key="63" pos="384" len="384" vol="60" pan="0"/><note key="53" pos="768" len="384" vol="60" pan="0"/><note key="56" pos="768" len="384" vol="60" pan="0"/><note key="60" pos="768" len="384" vol="60" pan="0"/><note key="49" pos="1152" len="192" vol="60" pan="0"/><note key="53" pos="1152" len="192" vol="60" pan="0"/><note key="56" pos="1152" len="192" vol="60" pan="0"/><note key="48" pos="1344" len="192" vol="60" pan="0"/><note key="51" pos="1344" len="192" vol="60" pan="0"/><note key="55" pos="1344" len="192" vol="60" pan="0"/></pattern></track><track name="Piano Stabs" muted="0" solo="0" type="0"><instrumenttrack vol="100" pan="0" pitch="0" pitchrange="1" fxch="0" basenote="57" usemasterpitch="1" firstkey="0" lastkey="127"><instrument name="sf2player"><sf2player src="/home/struktured/projects/lmms-ai/assets/soundfonts/GeneralUser GS v1.471.sf2" bank="0" patch="0" gain="0.9" reverbOn="1" reverbRoomSize="0.2" reverbDamping="0.0" reverbWidth="0.5" reverbLevel="0.9" chorusOn="0" chorusNum="3" chorusLevel="2.0" chorusSpeed="0.3" chorusDepth="8.0"/></instrument><eldata ftype="0" fcut="14000" fres="0.5" fwet="0"/><fxchain enabled="0" numofeffects="0"/><midiport readable="0" writable="0" inputchannel="0" outputchannel="1" basevelocity="127" fixedinputvelocity="-1" fixedoutputvelocity="-1" fixedoutputnote="-1"/></instrumenttrack><pattern name="Stabs" type="1" muted="0" pos="0" len="1536"><note key="65" pos="0" len="12" vol="100" pan="0"/><note key="68" pos="0" len="12" vol="100" pan="0"/><note key="72" pos="0" len="12" vol="100" pan="0"/><note key="65" pos="144" len="12" vol="90" pan="0"/><note key="68" pos="144" len="12" vol="90" pan="0"/><note key="72" pos="144" len="12" vol="90" pan="0"/><note key="65" pos="336" len="12" vol="100" pan="0"/><note key="68" pos="336" len="12" vol="100" pan="0"/><note key="72" pos="336" len="12" vol="100" pan="0"/><note key="68" pos="384" len="12" vol="100" pan="0"/><note key="72" pos="384" len="12" vol="100" pan="0"/><note key="75" pos="384" len="12" vol="100" pan="0"/><note key="68" pos="528" len="12" vol="90" pan="0"/><note key="72" pos="528" len="12" vol="90" pan="0"/><note key="75" pos="528" len="12" vol="90" pan="0"/><note key="68" pos="720" len="12" vol="100" pan="0"/><note key="72" pos="720" len="12" vol="100" pan="0"/><note key="75" pos="720" len="12" vol="100" pan="0"/><note key="65" pos="768" len="12" vol="100" pan="0"/><note key="68" pos="768" len="12" vol="100" pan="0"/><note key="72" pos="768" len="12" vol="100" pan="0"/><note key="65" pos="912" len="12" vol="90" pan="0"/><note key="68" pos="912" len="12" vol="90" pan="0"/><note key="72" pos="912" len="12" vol="90" pan="0"/><note key="61" pos="1152" len="12" vol="100" pan="0"/><note key="65" pos="1152" len="12" vol="100" pan="0"/><note key="68" pos="1152" len="12" vol="100" pan="0"/><note key="60" pos="1344" len="12" vol="100" pan="0"/><note key="63" pos="1344" len="12" vol="100" pan="0"/><note key="67" pos="1344" len="12" vol="100" pan="0"/><note key="60" pos="1440" len="12" vol="90" pan="0"/><note key="63" pos="1440" len="12" vol="90" pan="0"/><note key="67" pos="1440" len="12" vol="90" pan="0"/><note key="60" pos="1488" len="24" vol="110" pan="0"/><note key="63" pos="1488" len="24" vol="110" pan="0"/><note key="67" pos="1488" len="24" vol="110" pan="0"/></pattern></track></trackcontainer>
    <fxmixer width="600" height="200">
      <mixerchannel num="0" name="Master" volume="1" muted="0"/>
    </fxmixer>
    <ControllerRackView width="350" height="200"/>
    <pianoroll width="600" height="480"/>
    <automationeditor width="600" height="400"/>
    <projectnotes/>
  </song>
</lmms-project>
