<?xml version='1.0' encoding='UTF-8'?>
<lmms-project creator="LMMS" type="song" creatorversion="1.3.0-alpha" version="31" creatorplatformtype="ubuntu" creatorplatform="linux">
  <head masterpitch="0" bpm="140" timesig_denominator="4" timesig_numerator="4" mastervol="100" />
  <song>
    <trackcontainer x="1" type="song" height="300" y="1" minimized="0" width="900" maximized="1" visible="1">
      <track type="0" mutedBeforeSolo="0" name="Kick" muted="0" solo="0">
        <instrumenttrack pitchrange="1" range_import="1" enablecc="0" vol="67" pitch="0" pan="0" usemasterpitch="1" scale="0" basenote="57" keymap="0" mixch="0" lastkey="127" enabled="0" firstkey="0">
          <midicontrollers cc63="0" cc91="0" cc109="0" cc60="0" cc117="0" cc29="0" cc102="0" cc19="0" cc1="0" cc87="0" cc92="0" cc113="0" cc104="0" cc58="0" cc96="0" cc42="0" cc100="0" cc114="0" cc123="0" cc82="0" cc24="0" cc118="0" cc67="0" cc14="0" cc15="0" cc28="0" cc0="0" cc70="0" cc46="0" cc98="0" cc116="0" cc36="0" cc20="0" cc77="0" cc111="0" cc11="0" cc10="0" cc59="0" cc5="0" cc39="0" cc75="0" cc71="0" cc12="0" cc108="0" cc84="0" cc105="0" cc80="0" cc103="0" cc6="0" cc26="0" cc88="0" cc53="0" cc69="0" cc3="0" cc65="0" cc127="0" cc37="0" cc64="0" cc49="0" cc48="0" cc21="0" cc90="0" cc106="0" cc112="0" cc78="0" cc85="0" cc76="0" cc126="0" cc119="0" cc18="0" cc68="0" cc93="0" cc50="0" cc4="0" cc74="0" cc107="0" cc122="0" cc55="0" cc125="0" cc97="0" cc120="0" cc81="0" cc89="0" cc32="0" cc73="0" cc79="0" cc115="0" cc7="0" cc2="0" cc30="0" cc99="0" cc101="0" cc124="0" cc45="0" cc44="0" cc38="0" cc54="0" cc72="0" cc83="0" cc52="0" cc66="0" cc110="0" cc17="0" cc34="0" cc31="0" cc51="0" cc22="0" cc95="0" cc23="0" cc56="0" cc13="0" cc41="0" cc86="0" cc121="0" cc27="0" cc9="0" cc57="0" cc16="0" cc33="0" cc25="0" cc61="0" cc94="0" cc40="0" cc62="0" cc43="0" cc35="0" cc8="0" cc47="0" />
          <instrument name="audiofileprocessor">
            <audiofileprocessor reversed="0" eframe="1" looped="0" lframe="0" interp="1" src="/home/struktured/projects/lmms-ai/lmms/data/samples/drums/kick_distorted01.ogg" amp="100" sframe="0" stutter="0">
              <key />
            </audiofileprocessor>
          </instrument>
          <eldata fres="0.5" fwet="0" fcut="14000" ftype="0">
            <elvol lspd_denominator="4" ctlenvamt="0" amt="0" att="0" latt="0" pdel="0" dec="0.5" lspd="0.1" lshp="0" sustain="0.5" rel="0.1" lpdel="0" userwavefile="" x100="0" lspd_syncmode="0" lspd_numerator="4" hold="0.5" lamt="0" />
            <elcut lspd_denominator="4" ctlenvamt="0" amt="0" att="0" latt="0" pdel="0" dec="0.5" lspd="0.1" lshp="0" sustain="0.5" rel="0.1" lpdel="0" userwavefile="" x100="0" lspd_syncmode="0" lspd_numerator="4" hold="0.5" lamt="0" />
            <elres lspd_denominator="4" ctlenvamt="0" amt="0" att="0" latt="0" pdel="0" dec="0.5" lspd="0.1" lshp="0" sustain="0.5" rel="0.1" lpdel="0" userwavefile="" x100="0" lspd_syncmode="0" lspd_numerator="4" hold="0.5" lamt="0" />
          </eldata>
          <chordcreator chord="0" chord-enabled="0" chordrange="1" />
          <arpeggiator arprange="1" arpdir="0" arpmode="0" arp-enabled="0" arptime_denominator="4" arp="0" arpgate="100" arpskip="0" arprepeats="1" arpcycle="0" arptime_numerator="4" arpmiss="0" arptime="100" arptime_syncmode="0" />
          <midiport fixedoutputnote="-1" outputprogram="1" readable="0" writable="0" fixedoutputvelocity="-1" basevelocity="127" outputchannel="1" inputcontroller="-1" inputchannel="0" fixedinputvelocity="-1" outputcontroller="-1" />
          <fxchain numofeffects="0" enabled="0" />
        </instrumenttrack>
        <midiclip off="0" pos="2304" len="9216" type="1" steps="16" name="Kick Pattern" autoresize="1" muted="0">
          <note pos="0" key="60" len="12" type="0" vol="95" pan="0" />
          <note pos="192" key="60" len="12" type="0" vol="95" pan="0" />
          <note pos="288" key="60" len="12" type="0" vol="85" pan="0" />
          <note pos="384" key="60" len="12" type="0" vol="95" pan="0" />
          <note pos="576" key="60" len="12" type="0" vol="95" pan="0" />
          <note pos="672" key="60" len="12" type="0" vol="85" pan="0" />
          <note pos="768" key="60" len="12" type="0" vol="95" pan="0" />
          <note pos="960" key="60" len="12" type="0" vol="95" pan="0" />
          <note pos="1056" key="60" len="12" type="0" vol="85" pan="0" />
          <note pos="1152" key="60" len="12" type="0" vol="95" pan="0" />
          <note pos="1344" key="60" len="12" type="0" vol="95" pan="0" />
          <note pos="1440" key="60" len="12" type="0" vol="85" pan="0" />
          <note pos="1536" key="60" len="12" type="0" vol="95" pan="0" />
          <note pos="1728" key="60" len="12" type="0" vol="95" pan="0" />
          <note pos="1824" key="60" len="12" type="0" vol="85" pan="0" />
          <note pos="1920" key="60" len="12" type="0" vol="95" pan="0" />
          <note pos="2112" key="60" len="12" type="0" vol="95" pan="0" />
          <note pos="2208" key="60" len="12" type="0" vol="85" pan="0" />
          <note pos="2304" key="60" len="12" type="0" vol="95" pan="0" />
          <note pos="2496" key="60" len="12" type="0" vol="95" pan="0" />
          <note pos="2592" key="60" len="12" type="0" vol="85" pan="0" />
          <note pos="2688" key="60" len="12" type="0" vol="95" pan="0" />
          <note pos="2880" key="60" len="12" type="0" vol="95" pan="0" />
          <note pos="2976" key="60" len="12" type="0" vol="85" pan="0" />
          <note pos="972" key="60" len="9" type="0" vol="80" pan="0" />
          <note pos="1356" key="60" len="9" type="0" vol="80" pan="0" />
          <note pos="1740" key="60" len="9" type="0" vol="80" pan="0" />
          <note pos="2124" key="60" len="9" type="0" vol="80" pan="0" />
          <note pos="2508" key="60" len="9" type="0" vol="80" pan="0" />
          <note pos="2892" key="60" len="9" type="0" vol="80" pan="0" />
          <note pos="2688" key="60" len="12" type="0" vol="100" pan="0" />
          <note pos="2736" key="60" len="12" type="0" vol="100" pan="0" />
          <note pos="2784" key="60" len="12" type="0" vol="100" pan="0" />
          <note pos="2832" key="60" len="12" type="0" vol="100" pan="0" />
          <note pos="2880" key="60" len="12" type="0" vol="100" pan="0" />
          <note pos="2928" key="60" len="12" type="0" vol="100" pan="0" />
          <note pos="2976" key="60" len="12" type="0" vol="100" pan="0" />
          <note pos="3024" key="60" len="12" type="0" vol="100" pan="0" />
          <note pos="3072" key="60" len="12" type="0" vol="95" pan="0" />
          <note pos="3264" key="60" len="12" type="0" vol="95" pan="0" />
          <note pos="3360" key="60" len="12" type="0" vol="85" pan="0" />
          <note pos="3456" key="60" len="12" type="0" vol="95" pan="0" />
          <note pos="3648" key="60" len="12" type="0" vol="95" pan="0" />
          <note pos="3744" key="60" len="12" type="0" vol="85" pan="0" />
          <note pos="3840" key="60" len="12" type="0" vol="95" pan="0" />
          <note pos="4032" key="60" len="12" type="0" vol="95" pan="0" />
          <note pos="4128" key="60" len="12" type="0" vol="85" pan="0" />
          <note pos="4224" key="60" len="12" type="0" vol="95" pan="0" />
          <note pos="4416" key="60" len="12" type="0" vol="95" pan="0" />
          <note pos="4512" key="60" len="12" type="0" vol="85" pan="0" />
          <note pos="4608" key="60" len="12" type="0" vol="95" pan="0" />
          <note pos="4800" key="60" len="12" type="0" vol="95" pan="0" />
          <note pos="4896" key="60" len="12" type="0" vol="85" pan="0" />
          <note pos="4992" key="60" len="12" type="0" vol="95" pan="0" />
          <note pos="5184" key="60" len="12" type="0" vol="95" pan="0" />
          <note pos="5280" key="60" len="12" type="0" vol="85" pan="0" />
          <note pos="5376" key="60" len="12" type="0" vol="95" pan="0" />
          <note pos="5568" key="60" len="12" type="0" vol="95" pan="0" />
          <note pos="5664" key="60" len="12" type="0" vol="85" pan="0" />
          <note pos="5760" key="60" len="12" type="0" vol="95" pan="0" />
          <note pos="5952" key="60" len="12" type="0" vol="95" pan="0" />
          <note pos="6048" key="60" len="12" type="0" vol="85" pan="0" />
          <note pos="4044" key="60" len="9" type="0" vol="80" pan="0" />
          <note pos="4428" key="60" len="9" type="0" vol="80" pan="0" />
          <note pos="4812" key="60" len="9" type="0" vol="80" pan="0" />
          <note pos="5196" key="60" len="9" type="0" vol="80" pan="0" />
          <note pos="5580" key="60" len="9" type="0" vol="80" pan="0" />
          <note pos="5964" key="60" len="9" type="0" vol="80" pan="0" />
          <note pos="5760" key="60" len="12" type="0" vol="100" pan="0" />
          <note pos="5808" key="60" len="12" type="0" vol="100" pan="0" />
          <note pos="5856" key="60" len="12" type="0" vol="100" pan="0" />
          <note pos="5904" key="60" len="12" type="0" vol="100" pan="0" />
          <note pos="5952" key="60" len="12" type="0" vol="100" pan="0" />
          <note pos="6000" key="60" len="12" type="0" vol="100" pan="0" />
          <note pos="6048" key="60" len="12" type="0" vol="100" pan="0" />
          <note pos="6096" key="60" len="12" type="0" vol="100" pan="0" />
          <note pos="6144" key="60" len="12" type="0" vol="95" pan="0" />
          <note pos="6336" key="60" len="12" type="0" vol="95" pan="0" />
          <note pos="6336" key="60" len="12" type="0" vol="95" pan="0" />
          <note pos="6432" key="60" len="12" type="0" vol="95" pan="0" />
          <note pos="6528" key="60" len="12" type="0" vol="95" pan="0" />
          <note pos="6480" key="60" len="9" type="0" vol="80" pan="0" />
          <note pos="6720" key="60" len="12" type="0" vol="95" pan="0" />
          <note pos="6816" key="60" len="12" type="0" vol="95" pan="0" />
          <note pos="6864" key="60" len="9" type="0" vol="80" pan="0" />
          <note pos="6912" key="60" len="12" type="0" vol="95" pan="0" />
          <note pos="7104" key="60" len="12" type="0" vol="95" pan="0" />
          <note pos="7200" key="60" len="12" type="0" vol="95" pan="0" />
          <note pos="7248" key="60" len="9" type="0" vol="80" pan="0" />
          <note pos="7296" key="60" len="12" type="0" vol="95" pan="0" />
          <note pos="7488" key="60" len="12" type="0" vol="95" pan="0" />
          <note pos="7584" key="60" len="12" type="0" vol="95" pan="0" />
          <note pos="7632" key="60" len="9" type="0" vol="80" pan="0" />
          <note pos="7680" key="60" len="12" type="0" vol="95" pan="0" />
          <note pos="7872" key="60" len="12" type="0" vol="95" pan="0" />
          <note pos="7968" key="60" len="12" type="0" vol="95" pan="0" />
          <note pos="8016" key="60" len="9" type="0" vol="80" pan="0" />
          <note pos="8064" key="60" len="12" type="0" vol="95" pan="0" />
          <note pos="8256" key="60" len="12" type="0" vol="95" pan="0" />
          <note pos="8352" key="60" len="12" type="0" vol="95" pan="0" />
          <note pos="8400" key="60" len="9" type="0" vol="80" pan="0" />
          <note pos="8448" key="60" len="12" type="0" vol="95" pan="0" />
          <note pos="8640" key="60" len="12" type="0" vol="95" pan="0" />
          <note pos="8736" key="60" len="12" type="0" vol="95" pan="0" />
          <note pos="8784" key="60" len="9" type="0" vol="80" pan="0" />
          <note pos="8832" key="60" len="12" type="0" vol="100" pan="0" />
          <note pos="9024" key="60" len="12" type="0" vol="100" pan="0" />
          <note pos="9120" key="60" len="12" type="0" vol="100" pan="0" />
          <note pos="9168" key="60" len="9" type="0" vol="80" pan="0" />
        </midiclip>
      </track>
      <track type="0" mutedBeforeSolo="0" name="Hi-Hat" muted="0" solo="0">
        <instrumenttrack pitchrange="1" range_import="1" enablecc="0" vol="100" pitch="0" pan="0" usemasterpitch="1" scale="0" basenote="57" keymap="0" mixch="0" lastkey="127" enabled="0" firstkey="0">
          <midicontrollers cc63="0" cc91="0" cc109="0" cc60="0" cc117="0" cc29="0" cc102="0" cc19="0" cc1="0" cc87="0" cc92="0" cc113="0" cc104="0" cc58="0" cc96="0" cc42="0" cc100="0" cc114="0" cc123="0" cc82="0" cc24="0" cc118="0" cc67="0" cc14="0" cc15="0" cc28="0" cc0="0" cc70="0" cc46="0" cc98="0" cc116="0" cc36="0" cc20="0" cc77="0" cc111="0" cc11="0" cc10="0" cc59="0" cc5="0" cc39="0" cc75="0" cc71="0" cc12="0" cc108="0" cc84="0" cc105="0" cc80="0" cc103="0" cc6="0" cc26="0" cc88="0" cc53="0" cc69="0" cc3="0" cc65="0" cc127="0" cc37="0" cc64="0" cc49="0" cc48="0" cc21="0" cc90="0" cc106="0" cc112="0" cc78="0" cc85="0" cc76="0" cc126="0" cc119="0" cc18="0" cc68="0" cc93="0" cc50="0" cc4="0" cc74="0" cc107="0" cc122="0" cc55="0" cc125="0" cc97="0" cc120="0" cc81="0" cc89="0" cc32="0" cc73="0" cc79="0" cc115="0" cc7="0" cc2="0" cc30="0" cc99="0" cc101="0" cc124="0" cc45="0" cc44="0" cc38="0" cc54="0" cc72="0" cc83="0" cc52="0" cc66="0" cc110="0" cc17="0" cc34="0" cc31="0" cc51="0" cc22="0" cc95="0" cc23="0" cc56="0" cc13="0" cc41="0" cc86="0" cc121="0" cc27="0" cc9="0" cc57="0" cc16="0" cc33="0" cc25="0" cc61="0" cc94="0" cc40="0" cc62="0" cc43="0" cc35="0" cc8="0" cc47="0" />
          <instrument name="audiofileprocessor">
            <audiofileprocessor reversed="0" eframe="1" looped="0" lframe="0" interp="1" src="/home/struktured/projects/lmms-ai/lmms/data/samples/drums/hihat_closed02.ogg" amp="100" sframe="0" stutter="0">
              <key />
            </audiofileprocessor>
          </instrument>
          <eldata fres="0.5" fwet="0" fcut="14000" ftype="0">
            <elvol lspd_denominator="4" ctlenvamt="0" amt="0" att="0" latt="0" pdel="0" dec="0.5" lspd="0.1" lshp="0" sustain="0.5" rel="0.1" lpdel="0" userwavefile="" x100="0" lspd_syncmode="0" lspd_numerator="4" hold="0.5" lamt="0" />
            <elcut lspd_denominator="4" ctlenvamt="0" amt="0" att="0" latt="0" pdel="0" dec="0.5" lspd="0.1" lshp="0" sustain="0.5" rel="0.1" lpdel="0" userwavefile="" x100="0" lspd_syncmode="0" lspd_numerator="4" hold="0.5" lamt="0" />
            <elres lspd_denominator="4" ctlenvamt="0" amt="0" att="0" latt="0" pdel="0" dec="0.5" lspd="0.1" lshp="0" sustain="0.5" rel="0.1" lpdel="0" userwavefile="" x100="0" lspd_syncmode="0" lspd_numerator="4" hold="0.5" lamt="0" />
          </eldata>
          <chordcreator chord="0" chord-enabled="0" chordrange="1" />
          <arpeggiator arprange="1" arpdir="0" arpmode="0" arp-enabled="0" arptime_denominator="4" arp="0" arpgate="100" arpskip="0" arprepeats="1" arpcycle="0" arptime_numerator="4" arpmiss="0" arptime="100" arptime_syncmode="0" />
          <midiport fixedoutputnote="-1" outputprogram="1" readable="0" writable="0" fixedoutputvelocity="-1" basevelocity="127" outputchannel="1" inputcontroller="-1" inputchannel="0" fixedinputvelocity="-1" outputcontroller="-1" />
          <fxchain numofeffects="0" enabled="0" />
        </instrumenttrack>
        <midiclip off="0" pos="2304" len="9216" type="1" steps="16" name="Hi-Hat Pattern" autoresize="1" muted="0">
          <note pos="24" key="60" len="9" type="0" vol="65" pan="0" />
          <note pos="72" key="60" len="9" type="0" vol="55" pan="0" />
          <note pos="120" key="60" len="9" type="0" vol="65" pan="0" />
          <note pos="168" key="60" len="9" type="0" vol="55" pan="0" />
          <note pos="216" key="60" len="9" type="0" vol="65" pan="0" />
          <note pos="264" key="60" len="9" type="0" vol="55" pan="0" />
          <note pos="312" key="60" len="9" type="0" vol="65" pan="0" />
          <note pos="360" key="60" len="9" type="0" vol="55" pan="0" />
          <note pos="408" key="60" len="9" type="0" vol="65" pan="0" />
          <note pos="456" key="60" len="9" type="0" vol="55" pan="0" />
          <note pos="504" key="60" len="9" type="0" vol="65" pan="0" />
          <note pos="552" key="60" len="9" type="0" vol="55" pan="0" />
          <note pos="600" key="60" len="9" type="0" vol="65" pan="0" />
          <note pos="648" key="60" len="9" type="0" vol="55" pan="0" />
          <note pos="696" key="60" len="9" type="0" vol="65" pan="0" />
          <note pos="744" key="60" len="9" type="0" vol="55" pan="0" />
          <note pos="792" key="60" len="9" type="0" vol="65" pan="0" />
          <note pos="840" key="60" len="9" type="0" vol="55" pan="0" />
          <note pos="888" key="60" len="9" type="0" vol="65" pan="0" />
          <note pos="936" key="60" len="9" type="0" vol="55" pan="0" />
          <note pos="984" key="60" len="9" type="0" vol="65" pan="0" />
          <note pos="1032" key="60" len="9" type="0" vol="55" pan="0" />
          <note pos="1080" key="60" len="9" type="0" vol="65" pan="0" />
          <note pos="1128" key="60" len="9" type="0" vol="55" pan="0" />
          <note pos="1176" key="60" len="9" type="0" vol="65" pan="0" />
          <note pos="1224" key="60" len="9" type="0" vol="55" pan="0" />
          <note pos="1272" key="60" len="9" type="0" vol="65" pan="0" />
          <note pos="1320" key="60" len="9" type="0" vol="55" pan="0" />
          <note pos="1368" key="60" len="9" type="0" vol="65" pan="0" />
          <note pos="1416" key="60" len="9" type="0" vol="55" pan="0" />
          <note pos="1464" key="60" len="9" type="0" vol="65" pan="0" />
          <note pos="1512" key="60" len="9" type="0" vol="55" pan="0" />
          <note pos="1560" key="60" len="9" type="0" vol="65" pan="0" />
          <note pos="1608" key="60" len="9" type="0" vol="55" pan="0" />
          <note pos="1656" key="60" len="9" type="0" vol="65" pan="0" />
          <note pos="1704" key="60" len="9" type="0" vol="55" pan="0" />
          <note pos="1752" key="60" len="9" type="0" vol="65" pan="0" />
          <note pos="1800" key="60" len="9" type="0" vol="55" pan="0" />
          <note pos="1848" key="60" len="9" type="0" vol="65" pan="0" />
          <note pos="1896" key="60" len="9" type="0" vol="55" pan="0" />
          <note pos="1944" key="60" len="9" type="0" vol="65" pan="0" />
          <note pos="1992" key="60" len="9" type="0" vol="55" pan="0" />
          <note pos="2040" key="60" len="9" type="0" vol="65" pan="0" />
          <note pos="2088" key="60" len="9" type="0" vol="55" pan="0" />
          <note pos="2136" key="60" len="9" type="0" vol="65" pan="0" />
          <note pos="2184" key="60" len="9" type="0" vol="55" pan="0" />
          <note pos="2232" key="60" len="9" type="0" vol="65" pan="0" />
          <note pos="2280" key="60" len="9" type="0" vol="55" pan="0" />
          <note pos="2328" key="60" len="9" type="0" vol="65" pan="0" />
          <note pos="2376" key="60" len="9" type="0" vol="55" pan="0" />
          <note pos="2424" key="60" len="9" type="0" vol="65" pan="0" />
          <note pos="2472" key="60" len="9" type="0" vol="55" pan="0" />
          <note pos="2520" key="60" len="9" type="0" vol="65" pan="0" />
          <note pos="2568" key="60" len="9" type="0" vol="55" pan="0" />
          <note pos="2616" key="60" len="9" type="0" vol="65" pan="0" />
          <note pos="2664" key="60" len="9" type="0" vol="55" pan="0" />
          <note pos="2712" key="60" len="9" type="0" vol="65" pan="0" />
          <note pos="2760" key="60" len="9" type="0" vol="55" pan="0" />
          <note pos="2808" key="60" len="9" type="0" vol="65" pan="0" />
          <note pos="2856" key="60" len="9" type="0" vol="55" pan="0" />
          <note pos="2904" key="60" len="9" type="0" vol="65" pan="0" />
          <note pos="2952" key="60" len="9" type="0" vol="55" pan="0" />
          <note pos="3000" key="60" len="9" type="0" vol="65" pan="0" />
          <note pos="3048" key="60" len="9" type="0" vol="55" pan="0" />
          <note pos="3096" key="60" len="9" type="0" vol="65" pan="0" />
          <note pos="3240" key="60" len="9" type="0" vol="55" pan="0" />
          <note pos="3384" key="60" len="9" type="0" vol="65" pan="0" />
          <note pos="3528" key="60" len="9" type="0" vol="55" pan="0" />
          <note pos="3672" key="60" len="9" type="0" vol="65" pan="0" />
          <note pos="3816" key="60" len="9" type="0" vol="55" pan="0" />
          <note pos="3960" key="60" len="9" type="0" vol="65" pan="0" />
          <note pos="4104" key="60" len="9" type="0" vol="55" pan="0" />
          <note pos="4248" key="60" len="9" type="0" vol="65" pan="0" />
          <note pos="4392" key="60" len="9" type="0" vol="55" pan="0" />
          <note pos="4536" key="60" len="9" type="0" vol="65" pan="0" />
          <note pos="4680" key="60" len="9" type="0" vol="55" pan="0" />
          <note pos="4824" key="60" len="9" type="0" vol="65" pan="0" />
          <note pos="4968" key="60" len="9" type="0" vol="55" pan="0" />
          <note pos="5112" key="60" len="9" type="0" vol="65" pan="0" />
          <note pos="5256" key="60" len="9" type="0" vol="55" pan="0" />
          <note pos="5400" key="60" len="9" type="0" vol="65" pan="0" />
          <note pos="5544" key="60" len="9" type="0" vol="55" pan="0" />
          <note pos="5688" key="60" len="9" type="0" vol="65" pan="0" />
          <note pos="5832" key="60" len="9" type="0" vol="55" pan="0" />
          <note pos="5976" key="60" len="9" type="0" vol="65" pan="0" />
          <note pos="6120" key="60" len="9" type="0" vol="55" pan="0" />
          <note pos="6144" key="60" len="9" type="0" vol="70" pan="0" />
          <note pos="6192" key="60" len="9" type="0" vol="70" pan="0" />
          <note pos="6240" key="60" len="9" type="0" vol="70" pan="0" />
          <note pos="6288" key="60" len="9" type="0" vol="70" pan="0" />
          <note pos="6336" key="60" len="9" type="0" vol="70" pan="0" />
          <note pos="6384" key="60" len="9" type="0" vol="70" pan="0" />
          <note pos="6432" key="60" len="9" type="0" vol="70" pan="0" />
          <note pos="6480" key="60" len="9" type="0" vol="70" pan="0" />
          <note pos="6528" key="60" len="9" type="0" vol="70" pan="0" />
          <note pos="6576" key="60" len="9" type="0" vol="70" pan="0" />
          <note pos="6624" key="60" len="9" type="0" vol="70" pan="0" />
          <note pos="6672" key="60" len="9" type="0" vol="70" pan="0" />
          <note pos="6720" key="60" len="9" type="0" vol="70" pan="0" />
          <note pos="6768" key="60" len="9" type="0" vol="70" pan="0" />
          <note pos="6816" key="60" len="9" type="0" vol="70" pan="0" />
          <note pos="6864" key="60" len="9" type="0" vol="70" pan="0" />
          <note pos="6912" key="60" len="9" type="0" vol="70" pan="0" />
          <note pos="6960" key="60" len="9" type="0" vol="70" pan="0" />
          <note pos="7008" key="60" len="9" type="0" vol="70" pan="0" />
          <note pos="7056" key="60" len="9" type="0" vol="70" pan="0" />
          <note pos="7104" key="60" len="9" type="0" vol="70" pan="0" />
          <note pos="7152" key="60" len="9" type="0" vol="70" pan="0" />
          <note pos="7200" key="60" len="9" type="0" vol="70" pan="0" />
          <note pos="7248" key="60" len="9" type="0" vol="70" pan="0" />
          <note pos="7296" key="60" len="9" type="0" vol="70" pan="0" />
          <note pos="7344" key="60" len="9" type="0" vol="70" pan="0" />
          <note pos="7392" key="60" len="9" type="0" vol="70" pan="0" />
          <note pos="7440" key="60" len="9" type="0" vol="70" pan="0" />
          <note pos="7488" key="60" len="9" type="0" vol="70" pan="0" />
          <note pos="7536" key="60" len="9" type="0" vol="70" pan="0" />
          <note pos="7584" key="60" len="9" type="0" vol="70" pan="0" />
          <note pos="7632" key="60" len="9" type="0" vol="70" pan="0" />
          <note pos="7680" key="60" len="9" type="0" vol="70" pan="0" />
          <note pos="7728" key="60" len="9" type="0" vol="70" pan="0" />
          <note pos="7776" key="60" len="9" type="0" vol="70" pan="0" />
          <note pos="7824" key="60" len="9" type="0" vol="70" pan="0" />
          <note pos="7872" key="60" len="9" type="0" vol="70" pan="0" />
          <note pos="7920" key="60" len="9" type="0" vol="70" pan="0" />
          <note pos="7968" key="60" len="9" type="0" vol="70" pan="0" />
          <note pos="8016" key="60" len="9" type="0" vol="70" pan="0" />
          <note pos="8064" key="60" len="9" type="0" vol="70" pan="0" />
          <note pos="8112" key="60" len="9" type="0" vol="70" pan="0" />
          <note pos="8160" key="60" len="9" type="0" vol="70" pan="0" />
          <note pos="8208" key="60" len="9" type="0" vol="70" pan="0" />
          <note pos="8256" key="60" len="9" type="0" vol="70" pan="0" />
          <note pos="8304" key="60" len="9" type="0" vol="70" pan="0" />
          <note pos="8352" key="60" len="9" type="0" vol="70" pan="0" />
          <note pos="8400" key="60" len="9" type="0" vol="70" pan="0" />
          <note pos="8448" key="60" len="9" type="0" vol="70" pan="0" />
          <note pos="8496" key="60" len="9" type="0" vol="70" pan="0" />
          <note pos="8544" key="60" len="9" type="0" vol="70" pan="0" />
          <note pos="8592" key="60" len="9" type="0" vol="70" pan="0" />
          <note pos="8640" key="60" len="9" type="0" vol="70" pan="0" />
          <note pos="8688" key="60" len="9" type="0" vol="70" pan="0" />
          <note pos="8736" key="60" len="9" type="0" vol="70" pan="0" />
          <note pos="8784" key="60" len="9" type="0" vol="70" pan="0" />
          <note pos="8832" key="60" len="9" type="0" vol="70" pan="0" />
          <note pos="8880" key="60" len="9" type="0" vol="70" pan="0" />
          <note pos="8928" key="60" len="9" type="0" vol="70" pan="0" />
          <note pos="8976" key="60" len="9" type="0" vol="70" pan="0" />
          <note pos="9024" key="60" len="9" type="0" vol="70" pan="0" />
          <note pos="9072" key="60" len="9" type="0" vol="70" pan="0" />
          <note pos="9120" key="60" len="9" type="0" vol="70" pan="0" />
          <note pos="9168" key="60" len="9" type="0" vol="70" pan="0" />
        </midiclip>
      </track>
      <track type="0" mutedBeforeSolo="0" name="Snare" muted="0" solo="0">
        <instrumenttrack pitchrange="1" range_import="1" enablecc="0" vol="96" pitch="0" pan="0" usemasterpitch="1" scale="0" basenote="57" keymap="0" mixch="0" lastkey="127" enabled="0" firstkey="0">
          <midicontrollers cc63="0" cc91="0" cc109="0" cc60="0" cc117="0" cc29="0" cc102="0" cc19="0" cc1="0" cc87="0" cc92="0" cc113="0" cc104="0" cc58="0" cc96="0" cc42="0" cc100="0" cc114="0" cc123="0" cc82="0" cc24="0" cc118="0" cc67="0" cc14="0" cc15="0" cc28="0" cc0="0" cc70="0" cc46="0" cc98="0" cc116="0" cc36="0" cc20="0" cc77="0" cc111="0" cc11="0" cc10="0" cc59="0" cc5="0" cc39="0" cc75="0" cc71="0" cc12="0" cc108="0" cc84="0" cc105="0" cc80="0" cc103="0" cc6="0" cc26="0" cc88="0" cc53="0" cc69="0" cc3="0" cc65="0" cc127="0" cc37="0" cc64="0" cc49="0" cc48="0" cc21="0" cc90="0" cc106="0" cc112="0" cc78="0" cc85="0" cc76="0" cc126="0" cc119="0" cc18="0" cc68="0" cc93="0" cc50="0" cc4="0" cc74="0" cc107="0" cc122="0" cc55="0" cc125="0" cc97="0" cc120="0" cc81="0" cc89="0" cc32="0" cc73="0" cc79="0" cc115="0" cc7="0" cc2="0" cc30="0" cc99="0" cc101="0" cc124="0" cc45="0" cc44="0" cc38="0" cc54="0" cc72="0" cc83="0" cc52="0" cc66="0" cc110="0" cc17="0" cc34="0" cc31="0" cc51="0" cc22="0" cc95="0" cc23="0" cc56="0" cc13="0" cc41="0" cc86="0" cc121="0" cc27="0" cc9="0" cc57="0" cc16="0" cc33="0" cc25="0" cc61="0" cc94="0" cc40="0" cc62="0" cc43="0" cc35="0" cc8="0" cc47="0" />
          <instrument name="audiofileprocessor">
            <audiofileprocessor reversed="0" eframe="1" looped="0" lframe="0" interp="1" src="/home/struktured/projects/lmms-ai/lmms/data/samples/drums/nasty_snare01.ogg" amp="100" sframe="0" stutter="0">
              <key />
            </audiofileprocessor>
          </instrument>
          <eldata fres="0.5" fwet="0" fcut="14000" ftype="0">
            <elvol lspd_denominator="4" ctlenvamt="0" amt="0" att="0" latt="0" pdel="0" dec="0.5" lspd="0.1" lshp="0" sustain="0.5" rel="0.1" lpdel="0" userwavefile="" x100="0" lspd_syncmode="0" lspd_numerator="4" hold="0.5" lamt="0" />
            <elcut lspd_denominator="4" ctlenvamt="0" amt="0" att="0" latt="0" pdel="0" dec="0.5" lspd="0.1" lshp="0" sustain="0.5" rel="0.1" lpdel="0" userwavefile="" x100="0" lspd_syncmode="0" lspd_numerator="4" hold="0.5" lamt="0" />
            <elres lspd_denominator="4" ctlenvamt="0" amt="0" att="0" latt="0" pdel="0" dec="0.5" lspd="0.1" lshp="0" sustain="0.5" rel="0.1" lpdel="0" userwavefile="" x100="0" lspd_syncmode="0" lspd_numerator="4" hold="0.5" lamt="0" />
          </eldata>
          <chordcreator chord="0" chord-enabled="0" chordrange="1" />
          <arpeggiator arprange="1" arpdir="0" arpmode="0" arp-enabled="0" arptime_denominator="4" arp="0" arpgate="100" arpskip="0" arprepeats="1" arpcycle="0" arptime_numerator="4" arpmiss="0" arptime="100" arptime_syncmode="0" />
          <midiport fixedoutputnote="-1" outputprogram="1" readable="0" writable="0" fixedoutputvelocity="-1" basevelocity="127" outputchannel="1" inputcontroller="-1" inputchannel="0" fixedinputvelocity="-1" outputcontroller="-1" />
          <fxchain numofeffects="0" enabled="0" />
        </instrumenttrack>
        <midiclip off="0" pos="2304" len="9216" type="1" steps="16" name="Snare Pattern" autoresize="1" muted="0">
          <note pos="96" key="60" len="12" type="0" vol="90" pan="0" />
          <note pos="288" key="60" len="12" type="0" vol="90" pan="0" />
          <note pos="480" key="60" len="12" type="0" vol="90" pan="0" />
          <note pos="672" key="60" len="12" type="0" vol="90" pan="0" />
          <note pos="866" key="60" len="12" type="0" vol="90" pan="0" />
          <note pos="1056" key="60" len="12" type="0" vol="90" pan="0" />
          <note pos="1248" key="60" len="12" type="0" vol="90" pan="0" />
          <note pos="1442" key="60" len="12" type="0" vol="90" pan="0" />
          <note pos="1632" key="60" len="12" type="0" vol="90" pan="0" />
          <note pos="1824" key="60" len="12" type="0" vol="90" pan="0" />
          <note pos="2018" key="60" len="12" type="0" vol="90" pan="0" />
          <note pos="2208" key="60" len="12" type="0" vol="90" pan="0" />
          <note pos="2400" key="60" len="12" type="0" vol="90" pan="0" />
          <note pos="2594" key="60" len="12" type="0" vol="90" pan="0" />
          <note pos="2784" key="60" len="12" type="0" vol="90" pan="0" />
          <note pos="2976" key="60" len="12" type="0" vol="90" pan="0" />
          <note pos="2688" key="60" len="9" type="0" vol="70" pan="0" />
          <note pos="2712" key="60" len="9" type="0" vol="73" pan="0" />
          <note pos="2736" key="60" len="9" type="0" vol="76" pan="0" />
          <note pos="2760" key="60" len="9" type="0" vol="79" pan="0" />
          <note pos="2784" key="60" len="9" type="0" vol="82" pan="0" />
          <note pos="2808" key="60" len="9" type="0" vol="85" pan="0" />
          <note pos="2832" key="60" len="9" type="0" vol="88" pan="0" />
          <note pos="2856" key="60" len="9" type="0" vol="91" pan="0" />
          <note pos="2880" key="60" len="7" type="0" vol="75" pan="0" />
          <note pos="2892" key="60" len="7" type="0" vol="76" pan="0" />
          <note pos="2904" key="60" len="7" type="0" vol="78" pan="0" />
          <note pos="2916" key="60" len="7" type="0" vol="79" pan="0" />
          <note pos="2928" key="60" len="7" type="0" vol="81" pan="0" />
          <note pos="2940" key="60" len="7" type="0" vol="82" pan="0" />
          <note pos="2952" key="60" len="7" type="0" vol="84" pan="0" />
          <note pos="2964" key="60" len="7" type="0" vol="85" pan="0" />
          <note pos="2976" key="60" len="7" type="0" vol="87" pan="0" />
          <note pos="2988" key="60" len="7" type="0" vol="88" pan="0" />
          <note pos="3000" key="60" len="7" type="0" vol="90" pan="0" />
          <note pos="3012" key="60" len="7" type="0" vol="91" pan="0" />
          <note pos="3024" key="60" len="7" type="0" vol="93" pan="0" />
          <note pos="3036" key="60" len="7" type="0" vol="94" pan="0" />
          <note pos="3048" key="60" len="7" type="0" vol="96" pan="0" />
          <note pos="3060" key="60" len="7" type="0" vol="97" pan="0" />
          <note pos="3168" key="60" len="12" type="0" vol="90" pan="0" />
          <note pos="3360" key="60" len="12" type="0" vol="90" pan="0" />
          <note pos="3552" key="60" len="12" type="0" vol="90" pan="0" />
          <note pos="3744" key="60" len="12" type="0" vol="90" pan="0" />
          <note pos="3938" key="60" len="12" type="0" vol="90" pan="0" />
          <note pos="4128" key="60" len="12" type="0" vol="90" pan="0" />
          <note pos="4320" key="60" len="12" type="0" vol="90" pan="0" />
          <note pos="4514" key="60" len="12" type="0" vol="90" pan="0" />
          <note pos="4704" key="60" len="12" type="0" vol="90" pan="0" />
          <note pos="4896" key="60" len="12" type="0" vol="90" pan="0" />
          <note pos="5090" key="60" len="12" type="0" vol="90" pan="0" />
          <note pos="5280" key="60" len="12" type="0" vol="90" pan="0" />
          <note pos="5472" key="60" len="12" type="0" vol="90" pan="0" />
          <note pos="5666" key="60" len="12" type="0" vol="90" pan="0" />
          <note pos="5856" key="60" len="12" type="0" vol="90" pan="0" />
          <note pos="6048" key="60" len="12" type="0" vol="90" pan="0" />
          <note pos="5760" key="60" len="9" type="0" vol="70" pan="0" />
          <note pos="5784" key="60" len="9" type="0" vol="73" pan="0" />
          <note pos="5808" key="60" len="9" type="0" vol="76" pan="0" />
          <note pos="5832" key="60" len="9" type="0" vol="79" pan="0" />
          <note pos="5856" key="60" len="9" type="0" vol="82" pan="0" />
          <note pos="5880" key="60" len="9" type="0" vol="85" pan="0" />
          <note pos="5904" key="60" len="9" type="0" vol="88" pan="0" />
          <note pos="5928" key="60" len="9" type="0" vol="91" pan="0" />
          <note pos="5952" key="60" len="7" type="0" vol="75" pan="0" />
          <note pos="5964" key="60" len="7" type="0" vol="76" pan="0" />
          <note pos="5976" key="60" len="7" type="0" vol="78" pan="0" />
          <note pos="5988" key="60" len="7" type="0" vol="79" pan="0" />
          <note pos="6000" key="60" len="7" type="0" vol="81" pan="0" />
          <note pos="6012" key="60" len="7" type="0" vol="82" pan="0" />
          <note pos="6024" key="60" len="7" type="0" vol="84" pan="0" />
          <note pos="6036" key="60" len="7" type="0" vol="85" pan="0" />
          <note pos="6048" key="60" len="7" type="0" vol="87" pan="0" />
          <note pos="6060" key="60" len="7" type="0" vol="88" pan="0" />
          <note pos="6072" key="60" len="7" type="0" vol="90" pan="0" />
          <note pos="6084" key="60" len="7" type="0" vol="91" pan="0" />
          <note pos="6096" key="60" len="7" type="0" vol="93" pan="0" />
          <note pos="6108" key="60" len="7" type="0" vol="94" pan="0" />
          <note pos="6120" key="60" len="7" type="0" vol="96" pan="0" />
          <note pos="6132" key="60" len="7" type="0" vol="97" pan="0" />
          <note pos="6240" key="60" len="9" type="0" vol="85" pan="0" />
          <note pos="6255" key="60" len="9" type="0" vol="88" pan="0" />
          <note pos="6271" key="60" len="9" type="0" vol="91" pan="0" />
          <note pos="6384" key="60" len="9" type="0" vol="85" pan="0" />
          <note pos="6399" key="60" len="9" type="0" vol="88" pan="0" />
          <note pos="6415" key="60" len="9" type="0" vol="91" pan="0" />
          <note pos="6576" key="60" len="9" type="0" vol="85" pan="0" />
          <note pos="6591" key="60" len="9" type="0" vol="88" pan="0" />
          <note pos="6607" key="60" len="9" type="0" vol="91" pan="0" />
          <note pos="6816" key="60" len="9" type="0" vol="85" pan="0" />
          <note pos="6831" key="60" len="9" type="0" vol="88" pan="0" />
          <note pos="6847" key="60" len="9" type="0" vol="91" pan="0" />
          <note pos="6960" key="60" len="9" type="0" vol="85" pan="0" />
          <note pos="6975" key="60" len="9" type="0" vol="88" pan="0" />
          <note pos="6991" key="60" len="9" type="0" vol="91" pan="0" />
          <note pos="7152" key="60" len="9" type="0" vol="85" pan="0" />
          <note pos="7167" key="60" len="9" type="0" vol="88" pan="0" />
          <note pos="7183" key="60" len="9" type="0" vol="91" pan="0" />
          <note pos="7392" key="60" len="9" type="0" vol="85" pan="0" />
          <note pos="7407" key="60" len="9" type="0" vol="88" pan="0" />
          <note pos="7423" key="60" len="9" type="0" vol="91" pan="0" />
          <note pos="7536" key="60" len="9" type="0" vol="85" pan="0" />
          <note pos="7551" key="60" len="9" type="0" vol="88" pan="0" />
          <note pos="7567" key="60" len="9" type="0" vol="91" pan="0" />
          <note pos="7728" key="60" len="9" type="0" vol="85" pan="0" />
          <note pos="7743" key="60" len="9" type="0" vol="88" pan="0" />
          <note pos="7759" key="60" len="9" type="0" vol="91" pan="0" />
          <note pos="7968" key="60" len="9" type="0" vol="85" pan="0" />
          <note pos="7983" key="60" len="9" type="0" vol="88" pan="0" />
          <note pos="7999" key="60" len="9" type="0" vol="91" pan="0" />
          <note pos="8112" key="60" len="9" type="0" vol="85" pan="0" />
          <note pos="8127" key="60" len="9" type="0" vol="88" pan="0" />
          <note pos="8143" key="60" len="9" type="0" vol="91" pan="0" />
          <note pos="8304" key="60" len="9" type="0" vol="85" pan="0" />
          <note pos="8319" key="60" len="9" type="0" vol="88" pan="0" />
          <note pos="8335" key="60" len="9" type="0" vol="91" pan="0" />
          <note pos="8544" key="60" len="9" type="0" vol="85" pan="0" />
          <note pos="8559" key="60" len="9" type="0" vol="88" pan="0" />
          <note pos="8575" key="60" len="9" type="0" vol="91" pan="0" />
          <note pos="8688" key="60" len="9" type="0" vol="85" pan="0" />
          <note pos="8703" key="60" len="9" type="0" vol="88" pan="0" />
          <note pos="8719" key="60" len="9" type="0" vol="91" pan="0" />
          <note pos="8880" key="60" len="9" type="0" vol="85" pan="0" />
          <note pos="8895" key="60" len="9" type="0" vol="88" pan="0" />
          <note pos="8911" key="60" len="9" type="0" vol="91" pan="0" />
          <note pos="9120" key="60" len="9" type="0" vol="85" pan="0" />
          <note pos="9135" key="60" len="9" type="0" vol="88" pan="0" />
          <note pos="9151" key="60" len="9" type="0" vol="91" pan="0" />
        </midiclip>
      </track>
      <track type="0" mutedBeforeSolo="0" name="Splash" muted="0" solo="0">
        <instrumenttrack pitchrange="1" range_import="1" enablecc="0" vol="60" pitch="0" pan="0" usemasterpitch="1" scale="0" basenote="57" keymap="0" mixch="0" lastkey="127" enabled="0" firstkey="0">
          <midicontrollers cc63="0" cc91="0" cc109="0" cc60="0" cc117="0" cc29="0" cc102="0" cc19="0" cc1="0" cc87="0" cc92="0" cc113="0" cc104="0" cc58="0" cc96="0" cc42="0" cc100="0" cc114="0" cc123="0" cc82="0" cc24="0" cc118="0" cc67="0" cc14="0" cc15="0" cc28="0" cc0="0" cc70="0" cc46="0" cc98="0" cc116="0" cc36="0" cc20="0" cc77="0" cc111="0" cc11="0" cc10="0" cc59="0" cc5="0" cc39="0" cc75="0" cc71="0" cc12="0" cc108="0" cc84="0" cc105="0" cc80="0" cc103="0" cc6="0" cc26="0" cc88="0" cc53="0" cc69="0" cc3="0" cc65="0" cc127="0" cc37="0" cc64="0" cc49="0" cc48="0" cc21="0" cc90="0" cc106="0" cc112="0" cc78="0" cc85="0" cc76="0" cc126="0" cc119="0" cc18="0" cc68="0" cc93="0" cc50="0" cc4="0" cc74="0" cc107="0" cc122="0" cc55="0" cc125="0" cc97="0" cc120="0" cc81="0" cc89="0" cc32="0" cc73="0" cc79="0" cc115="0" cc7="0" cc2="0" cc30="0" cc99="0" cc101="0" cc124="0" cc45="0" cc44="0" cc38="0" cc54="0" cc72="0" cc83="0" cc52="0" cc66="0" cc110="0" cc17="0" cc34="0" cc31="0" cc51="0" cc22="0" cc95="0" cc23="0" cc56="0" cc13="0" cc41="0" cc86="0" cc121="0" cc27="0" cc9="0" cc57="0" cc16="0" cc33="0" cc25="0" cc61="0" cc94="0" cc40="0" cc62="0" cc43="0" cc35="0" cc8="0" cc47="0" />
          <instrument name="audiofileprocessor">
            <audiofileprocessor reversed="0" eframe="1" looped="0" lframe="0" interp="1" src="/home/struktured/projects/lmms-ai/lmms/data/samples/drums/crash01.ogg" amp="100" sframe="0" stutter="0">
              <key />
            </audiofileprocessor>
          </instrument>
          <eldata fres="0.5" fwet="0" fcut="14000" ftype="0">
            <elvol lspd_denominator="4" ctlenvamt="0" amt="0" att="0" latt="0" pdel="0" dec="0.5" lspd="0.1" lshp="0" sustain="0.5" rel="0.1" lpdel="0" userwavefile="" x100="0" lspd_syncmode="0" lspd_numerator="4" hold="0.5" lamt="0" />
            <elcut lspd_denominator="4" ctlenvamt="0" amt="0" att="0" latt="0" pdel="0" dec="0.5" lspd="0.1" lshp="0" sustain="0.5" rel="0.1" lpdel="0" userwavefile="" x100="0" lspd_syncmode="0" lspd_numerator="4" hold="0.5" lamt="0" />
            <elres lspd_denominator="4" ctlenvamt="0" amt="0" att="0" latt="0" pdel="0" dec="0.5" lspd="0.1" lshp="0" sustain="0.5" rel="0.1" lpdel="0" userwavefile="" x100="0" lspd_syncmode="0" lspd_numerator="4" hold="0.5" lamt="0" />
          </eldata>
          <chordcreator chord="0" chord-enabled="0" chordrange="1" />
          <arpeggiator arprange="1" arpdir="0" arpmode="0" arp-enabled="0" arptime_denominator="4" arp="0" arpgate="100" arpskip="0" arprepeats="1" arpcycle="0" arptime_numerator="4" arpmiss="0" arptime="100" arptime_syncmode="0" />
          <midiport fixedoutputnote="-1" outputprogram="1" readable="0" writable="0" fixedoutputvelocity="-1" basevelocity="127" outputchannel="1" inputcontroller="-1" inputchannel="0" fixedinputvelocity="-1" outputcontroller="-1" />
          <fxchain numofeffects="0" enabled="0" />
        </instrumenttrack>
        <midiclip off="0" pos="2304" len="6144" type="1" steps="16" name="Splash Pattern" autoresize="1" muted="0">
          <note pos="768" key="60" len="24" type="0" vol="70" pan="0" />
          <note pos="1536" key="60" len="24" type="0" vol="70" pan="0" />
          <note pos="2304" key="60" len="24" type="0" vol="70" pan="0" />
          <note pos="2880" key="60" len="24" type="0" vol="75" pan="0" />
          <note pos="2688" key="60" len="19" type="0" vol="65" pan="0" />
          <note pos="2736" key="60" len="19" type="0" vol="65" pan="0" />
          <note pos="2784" key="60" len="19" type="0" vol="65" pan="0" />
          <note pos="2832" key="60" len="19" type="0" vol="65" pan="0" />
          <note pos="2880" key="60" len="19" type="0" vol="80" pan="0" />
          <note pos="2928" key="60" len="19" type="0" vol="80" pan="0" />
          <note pos="2976" key="60" len="19" type="0" vol="80" pan="0" />
          <note pos="3024" key="60" len="19" type="0" vol="80" pan="0" />
          <note pos="3840" key="60" len="24" type="0" vol="70" pan="0" />
          <note pos="4608" key="60" len="24" type="0" vol="70" pan="0" />
          <note pos="5376" key="60" len="24" type="0" vol="70" pan="0" />
          <note pos="5952" key="60" len="24" type="0" vol="75" pan="0" />
          <note pos="5760" key="60" len="19" type="0" vol="65" pan="0" />
          <note pos="5808" key="60" len="19" type="0" vol="65" pan="0" />
          <note pos="5856" key="60" len="19" type="0" vol="65" pan="0" />
          <note pos="5904" key="60" len="19" type="0" vol="65" pan="0" />
          <note pos="5952" key="60" len="19" type="0" vol="80" pan="0" />
          <note pos="6000" key="60" len="19" type="0" vol="80" pan="0" />
          <note pos="6048" key="60" len="19" type="0" vol="80" pan="0" />
          <note pos="6096" key="60" len="19" type="0" vol="80" pan="0" />
        </midiclip>
      </track>
      <track type="0" mutedBeforeSolo="0" name="Low Crash" muted="0" solo="0">
        <instrumenttrack pitchrange="1" range_import="1" enablecc="0" vol="60" pitch="0" pan="0" usemasterpitch="1" scale="0" basenote="57" keymap="0" mixch="0" lastkey="127" enabled="0" firstkey="0">
          <midicontrollers cc63="0" cc91="0" cc109="0" cc60="0" cc117="0" cc29="0" cc102="0" cc19="0" cc1="0" cc87="0" cc92="0" cc113="0" cc104="0" cc58="0" cc96="0" cc42="0" cc100="0" cc114="0" cc123="0" cc82="0" cc24="0" cc118="0" cc67="0" cc14="0" cc15="0" cc28="0" cc0="0" cc70="0" cc46="0" cc98="0" cc116="0" cc36="0" cc20="0" cc77="0" cc111="0" cc11="0" cc10="0" cc59="0" cc5="0" cc39="0" cc75="0" cc71="0" cc12="0" cc108="0" cc84="0" cc105="0" cc80="0" cc103="0" cc6="0" cc26="0" cc88="0" cc53="0" cc69="0" cc3="0" cc65="0" cc127="0" cc37="0" cc64="0" cc49="0" cc48="0" cc21="0" cc90="0" cc106="0" cc112="0" cc78="0" cc85="0" cc76="0" cc126="0" cc119="0" cc18="0" cc68="0" cc93="0" cc50="0" cc4="0" cc74="0" cc107="0" cc122="0" cc55="0" cc125="0" cc97="0" cc120="0" cc81="0" cc89="0" cc32="0" cc73="0" cc79="0" cc115="0" cc7="0" cc2="0" cc30="0" cc99="0" cc101="0" cc124="0" cc45="0" cc44="0" cc38="0" cc54="0" cc72="0" cc83="0" cc52="0" cc66="0" cc110="0" cc17="0" cc34="0" cc31="0" cc51="0" cc22="0" cc95="0" cc23="0" cc56="0" cc13="0" cc41="0" cc86="0" cc121="0" cc27="0" cc9="0" cc57="0" cc16="0" cc33="0" cc25="0" cc61="0" cc94="0" cc40="0" cc62="0" cc43="0" cc35="0" cc8="0" cc47="0" />
          <instrument name="audiofileprocessor">
            <audiofileprocessor reversed="0" eframe="1" looped="0" lframe="0" interp="1" src="/home/struktured/projects/lmms-ai/lmms/data/samples/drums/crash02.ogg" amp="100" sframe="0" stutter="0">
              <key />
            </audiofileprocessor>
          </instrument>
          <eldata fres="0.5" fwet="0" fcut="14000" ftype="0">
            <elvol lspd_denominator="4" ctlenvamt="0" amt="0" att="0" latt="0" pdel="0" dec="0.5" lspd="0.1" lshp="0" sustain="0.5" rel="0.1" lpdel="0" userwavefile="" x100="0" lspd_syncmode="0" lspd_numerator="4" hold="0.5" lamt="0" />
            <elcut lspd_denominator="4" ctlenvamt="0" amt="0" att="0" latt="0" pdel="0" dec="0.5" lspd="0.1" lshp="0" sustain="0.5" rel="0.1" lpdel="0" userwavefile="" x100="0" lspd_syncmode="0" lspd_numerator="4" hold="0.5" lamt="0" />
            <elres lspd_denominator="4" ctlenvamt="0" amt="0" att="0" latt="0" pdel="0" dec="0.5" lspd="0.1" lshp="0" sustain="0.5" rel="0.1" lpdel="0" userwavefile="" x100="0" lspd_syncmode="0" lspd_numerator="4" hold="0.5" lamt="0" />
          </eldata>
          <chordcreator chord="0" chord-enabled="0" chordrange="1" />
          <arpeggiator arprange="1" arpdir="0" arpmode="0" arp-enabled="0" arptime_denominator="4" arp="0" arpgate="100" arpskip="0" arprepeats="1" arpcycle="0" arptime_numerator="4" arpmiss="0" arptime="100" arptime_syncmode="0" />
          <midiport fixedoutputnote="-1" outputprogram="1" readable="0" writable="0" fixedoutputvelocity="-1" basevelocity="127" outputchannel="1" inputcontroller="-1" inputchannel="0" fixedinputvelocity="-1" outputcontroller="-1" />
          <fxchain numofeffects="0" enabled="0" />
        </instrumenttrack>
        <midiclip off="0" pos="2304" len="6144" type="1" steps="16" name="Low Crash Pattern" autoresize="1" muted="0">
          <note pos="1536" key="48" len="192" type="0" vol="90" pan="0" />
          <note pos="2880" key="48" len="192" type="0" vol="95" pan="0" />
          <note pos="4608" key="48" len="192" type="0" vol="90" pan="0" />
          <note pos="5952" key="48" len="192" type="0" vol="95" pan="0" />
          <note pos="4608" key="48" len="192" type="0" vol="90" pan="0" />
          <note pos="5952" key="48" len="192" type="0" vol="95" pan="0" />
        </midiclip>
      </track>
      <track type="0" mutedBeforeSolo="0" name="Wobble Bass" muted="0" solo="0">
        <instrumenttrack pitchrange="24" range_import="1" enablecc="0" vol="150" pan="0" usemasterpitch="1" scale="0" basenote="57" keymap="0" mixch="0" lastkey="127" enabled="0" firstkey="0">
          <pitch scale_type="linear" id="2922067" value="-515" />
          <midicontrollers cc63="0" cc91="0" cc109="0" cc60="0" cc117="0" cc29="0" cc102="0" cc19="0" cc1="0" cc87="0" cc92="0" cc113="0" cc104="0" cc58="0" cc96="0" cc42="0" cc100="0" cc114="0" cc123="0" cc82="0" cc24="0" cc118="0" cc67="0" cc14="0" cc15="0" cc28="0" cc0="0" cc70="0" cc46="0" cc98="0" cc116="0" cc36="0" cc20="0" cc77="0" cc111="0" cc11="0" cc10="0" cc59="0" cc5="0" cc39="0" cc75="0" cc71="0" cc12="0" cc108="0" cc84="0" cc105="0" cc80="0" cc103="0" cc6="0" cc26="0" cc88="0" cc53="0" cc69="0" cc3="0" cc65="0" cc127="0" cc37="0" cc64="0" cc49="0" cc48="0" cc21="0" cc90="0" cc106="0" cc112="0" cc78="0" cc85="0" cc76="0" cc126="0" cc119="0" cc18="0" cc68="0" cc93="0" cc50="0" cc4="0" cc74="0" cc107="0" cc122="0" cc55="0" cc125="0" cc97="0" cc120="0" cc81="0" cc89="0" cc32="0" cc73="0" cc79="0" cc115="0" cc7="0" cc2="0" cc30="0" cc99="0" cc101="0" cc124="0" cc45="0" cc44="0" cc38="0" cc54="0" cc72="0" cc83="0" cc52="0" cc66="0" cc110="0" cc17="0" cc34="0" cc31="0" cc51="0" cc22="0" cc95="0" cc23="0" cc56="0" cc13="0" cc41="0" cc86="0" cc121="0" cc27="0" cc9="0" cc57="0" cc16="0" cc33="0" cc25="0" cc61="0" cc94="0" cc40="0" cc62="0" cc43="0" cc35="0" cc8="0" cc47="0" />
          <instrument name="tripleoscillator">
            <tripleoscillator pan0="0" useWaveTable1="1" finel1="-4" wavetype1="2" stphdetun2="0" vol2="33" vol1="150" finer0="0" finel2="0" finel0="0" stphdetun1="0" finer2="0" phoffset2="0" stphdetun0="0" coarse2="-12" modalgo3="2" phoffset1="0" vol0="150" finer1="4" pan1="0" pan2="0" coarse0="0" modalgo2="0" coarse1="0" useWaveTable2="1" wavetype0="2" userwavefile0="" userwavefile1="" userwavefile2="" phoffset0="0" modalgo1="0" wavetype2="0" useWaveTable3="1">
              <key />
            </tripleoscillator>
          </instrument>
          <eldata fres="0.85000002" fwet="1" fcut="250" ftype="6">
            <elvol lspd_denominator="4" ctlenvamt="0" amt="0" att="0" latt="0" pdel="0" dec="0.5" lspd="0.1" lshp="0" sustain="0.5" rel="0.1" lpdel="0" userwavefile="" x100="0" lspd_syncmode="0" lspd_numerator="4" hold="0.5" lamt="0" />
            <elcut lspd_denominator="4" ctlenvamt="0" amt="0" att="0" latt="0" pdel="0" dec="0.5" lspd="0.1" lshp="0" sustain="0.5" rel="0.1" lpdel="0" userwavefile="" x100="0" lspd_syncmode="0" lspd_numerator="4" hold="0.5" lamt="0" />
            <elres lspd_denominator="4" ctlenvamt="0" amt="0" att="0" latt="0" pdel="0" dec="0.5" lspd="0.1" lshp="0" sustain="0.5" rel="0.1" lpdel="0" userwavefile="" x100="0" lspd_syncmode="0" lspd_numerator="4" hold="0.5" lamt="0" />
          </eldata>
          <chordcreator chord="0" chord-enabled="0" chordrange="1" />
          <arpeggiator arprange="1" arpdir="0" arpmode="0" arp-enabled="0" arptime_denominator="4" arp="0" arpgate="100" arpskip="0" arprepeats="1" arpcycle="0" arptime_numerator="4" arpmiss="0" arptime="100" arptime_syncmode="0" />
          <midiport fixedoutputnote="-1" outputprogram="1" readable="0" writable="0" fixedoutputvelocity="-1" basevelocity="127" outputchannel="1" inputcontroller="-1" inputchannel="0" fixedinputvelocity="-1" outputcontroller="-1" />
          <fxchain numofeffects="3" enabled="1">
            <effect autoquit_numerator="4" wet="1" autoquit_denominator="4" name="compressor" autoquit_syncmode="0" autoquit="1" on="1">
              <CompressorControls outGain="0" feedback="0" blend="1" autoAttack="0" mix="100" outBalance="0" tilt="0" midside="0" lookahead="0" stereoBalance="0" autoRelease="0" autoMakeup="0" limiter="0" peakmode="0" audition="0" inGain="0" stereoLink="1" inBalance="0">
                <threshold scale_type="log" id="6510705" value="-8" />
                <ratio scale_type="log" id="5758355" value="1.8" />
                <attack scale_type="log" id="6429311" value="10" />
                <release scale_type="log" id="7983138" value="100" />
                <knee scale_type="log" id="7092898" value="12" />
                <hold scale_type="log" id="3821225" value="0" />
                <range scale_type="log" id="7301310" value="-240" />
                <rms scale_type="log" id="2173951" value="1" />
                <lookaheadLength scale_type="log" id="5136190" value="0" />
                <tiltFreq scale_type="log" id="1783818" value="150" />
              </CompressorControls>
              <key />
            </effect>
            <effect autoquit_numerator="4" wet="0.60000002" autoquit_denominator="4" name="flanger" autoquit_syncmode="0" autoquit="1" on="1">
              <Flanger LfoAmount="0" LfoPhase="90" Invert="0" LfoFrequency="0.25" LfoFrequency_syncmode="0" LfoFrequency_numerator="4" Feedback="0" DelayTimeSamples="0.001" WhiteNoise="0" LfoFrequency_denominator="4" />
              <key />
            </effect>
            <effect autoquit_numerator="4" wet="0" autoquit_denominator="4" name="delay" autoquit_syncmode="0" autoquit="1" on="1">
              <Delay LfoAmount="0" DelayTimeSamples_numerator="4" DelayTimeSamples_denominator="4" LfoFrequency="2" LfoAmount_syncmode="0" LfoAmount_numerator="4" LfoFrequency_syncmode="0" LfoFrequency_numerator="4" OutGain="0" FeebackAmount="0" LfoAmount_denominator="4" DelayTimeSamples="0.5" DelayTimeSamples_syncmode="0" LfoFrequency_denominator="4" />
              <key />
            </effect>
          </fxchain>
        </instrumenttrack>
        <midiclip off="0" pos="2304" len="9216" type="1" steps="16" name="Wobble Pattern" autoresize="1" muted="0">
          <note pos="0" key="31" len="192" type="0" vol="90" pan="0" />
          <note pos="192" key="31" len="192" type="0" vol="90" pan="0" />
          <note pos="384" key="31" len="192" type="0" vol="90" pan="0" />
          <note pos="576" key="31" len="192" type="0" vol="90" pan="0" />
          <note pos="768" key="32" len="192" type="0" vol="90" pan="0" />
          <note pos="960" key="32" len="192" type="0" vol="90" pan="0" />
          <note pos="1152" key="32" len="192" type="0" vol="90" pan="0" />
          <note pos="1344" key="32" len="192" type="0" vol="90" pan="0" />
          <note pos="1536" key="31" len="192" type="0" vol="90" pan="0" />
          <note pos="1728" key="31" len="192" type="0" vol="90" pan="0" />
          <note pos="1920" key="31" len="192" type="0" vol="90" pan="0" />
          <note pos="2112" key="31" len="192" type="0" vol="90" pan="0" />
          <note pos="2304" key="32" len="192" type="0" vol="90" pan="0" />
          <note pos="2496" key="32" len="192" type="0" vol="90" pan="0" />
          <note pos="2688" key="29" len="192" type="0" vol="100" pan="0" />
          <note pos="2880" key="29" len="192" type="0" vol="100" pan="0" />
          <note pos="3072" key="31" len="192" type="0" vol="90" pan="0" />
          <note pos="3264" key="31" len="192" type="0" vol="90" pan="0" />
          <note pos="3456" key="31" len="192" type="0" vol="90" pan="0" />
          <note pos="3648" key="31" len="192" type="0" vol="90" pan="0" />
          <note pos="3840" key="31" len="192" type="0" vol="90" pan="0" />
          <note pos="4032" key="31" len="192" type="0" vol="90" pan="0" />
          <note pos="4224" key="31" len="192" type="0" vol="90" pan="0" />
          <note pos="4416" key="31" len="192" type="0" vol="90" pan="0" />
          <note pos="4608" key="38" len="48" type="0" vol="90" pan="0" />
          <note pos="4656" key="38" len="48" type="0" vol="90" pan="0" />
          <note pos="4704" key="38" len="48" type="0" vol="90" pan="0" />
          <note pos="4752" key="38" len="48" type="0" vol="90" pan="0" />
          <note pos="4800" key="38" len="48" type="0" vol="90" pan="0" />
          <note pos="4848" key="38" len="48" type="0" vol="90" pan="0" />
          <note pos="4896" key="38" len="48" type="0" vol="90" pan="0" />
          <note pos="4944" key="38" len="48" type="0" vol="90" pan="0" />
          <note pos="4992" key="38" len="48" type="0" vol="90" pan="0" />
          <note pos="5040" key="38" len="48" type="0" vol="90" pan="0" />
          <note pos="5088" key="38" len="48" type="0" vol="90" pan="0" />
          <note pos="5136" key="38" len="48" type="0" vol="90" pan="0" />
          <note pos="5184" key="38" len="48" type="0" vol="90" pan="0" />
          <note pos="5232" key="38" len="48" type="0" vol="90" pan="0" />
          <note pos="5280" key="38" len="48" type="0" vol="90" pan="0" />
          <note pos="5328" key="38" len="48" type="0" vol="90" pan="0" />
          <note pos="5376" key="38" len="48" type="0" vol="90" pan="0" />
          <note pos="5424" key="38" len="48" type="0" vol="90" pan="0" />
          <note pos="5472" key="38" len="48" type="0" vol="90" pan="0" />
          <note pos="5520" key="38" len="48" type="0" vol="90" pan="0" />
          <note pos="5568" key="38" len="48" type="0" vol="90" pan="0" />
          <note pos="5616" key="38" len="48" type="0" vol="90" pan="0" />
          <note pos="5664" key="38" len="48" type="0" vol="90" pan="0" />
          <note pos="5712" key="38" len="48" type="0" vol="90" pan="0" />
          <note pos="5760" key="38" len="48" type="0" vol="100" pan="0" />
          <note pos="5808" key="38" len="48" type="0" vol="100" pan="0" />
          <note pos="5856" key="38" len="48" type="0" vol="100" pan="0" />
          <note pos="5904" key="38" len="48" type="0" vol="100" pan="0" />
          <note pos="5952" key="38" len="48" type="0" vol="100" pan="0" />
          <note pos="6000" key="38" len="48" type="0" vol="100" pan="0" />
          <note pos="6048" key="38" len="48" type="0" vol="100" pan="0" />
          <note pos="6096" key="38" len="48" type="0" vol="100" pan="0" />
          <note pos="6144" key="38" len="24" type="0" vol="90" pan="0" />
          <note pos="6168" key="38" len="24" type="0" vol="90" pan="0" />
          <note pos="6192" key="38" len="24" type="0" vol="90" pan="0" />
          <note pos="6216" key="38" len="24" type="0" vol="90" pan="0" />
          <note pos="6240" key="38" len="24" type="0" vol="90" pan="0" />
          <note pos="6264" key="38" len="24" type="0" vol="90" pan="0" />
          <note pos="6288" key="38" len="24" type="0" vol="90" pan="0" />
          <note pos="6312" key="38" len="24" type="0" vol="90" pan="0" />
          <note pos="6336" key="38" len="24" type="0" vol="90" pan="0" />
          <note pos="6360" key="38" len="24" type="0" vol="90" pan="0" />
          <note pos="6384" key="38" len="24" type="0" vol="90" pan="0" />
          <note pos="6408" key="38" len="24" type="0" vol="90" pan="0" />
          <note pos="6432" key="38" len="24" type="0" vol="90" pan="0" />
          <note pos="6456" key="38" len="24" type="0" vol="90" pan="0" />
          <note pos="6480" key="38" len="24" type="0" vol="90" pan="0" />
          <note pos="6504" key="38" len="24" type="0" vol="90" pan="0" />
          <note pos="6528" key="38" len="24" type="0" vol="90" pan="0" />
          <note pos="6552" key="38" len="24" type="0" vol="90" pan="0" />
          <note pos="6576" key="38" len="24" type="0" vol="90" pan="0" />
          <note pos="6600" key="38" len="24" type="0" vol="90" pan="0" />
          <note pos="6624" key="38" len="24" type="0" vol="90" pan="0" />
          <note pos="6648" key="38" len="24" type="0" vol="90" pan="0" />
          <note pos="6672" key="38" len="24" type="0" vol="90" pan="0" />
          <note pos="6696" key="38" len="24" type="0" vol="90" pan="0" />
          <note pos="6720" key="38" len="24" type="0" vol="90" pan="0" />
          <note pos="6744" key="38" len="24" type="0" vol="90" pan="0" />
          <note pos="6768" key="38" len="24" type="0" vol="90" pan="0" />
          <note pos="6792" key="38" len="24" type="0" vol="90" pan="0" />
          <note pos="6816" key="38" len="24" type="0" vol="90" pan="0" />
          <note pos="6840" key="38" len="24" type="0" vol="90" pan="0" />
          <note pos="6864" key="38" len="24" type="0" vol="90" pan="0" />
          <note pos="6888" key="38" len="24" type="0" vol="90" pan="0" />
          <note pos="6912" key="38" len="24" type="0" vol="90" pan="0" />
          <note pos="6936" key="38" len="24" type="0" vol="90" pan="0" />
          <note pos="6960" key="38" len="24" type="0" vol="90" pan="0" />
          <note pos="6984" key="38" len="24" type="0" vol="90" pan="0" />
          <note pos="7008" key="38" len="24" type="0" vol="90" pan="0" />
          <note pos="7032" key="38" len="24" type="0" vol="90" pan="0" />
          <note pos="7056" key="38" len="24" type="0" vol="90" pan="0" />
          <note pos="7080" key="38" len="24" type="0" vol="90" pan="0" />
          <note pos="7104" key="38" len="24" type="0" vol="90" pan="0" />
          <note pos="7128" key="38" len="24" type="0" vol="90" pan="0" />
          <note pos="7152" key="38" len="24" type="0" vol="90" pan="0" />
          <note pos="7176" key="38" len="24" type="0" vol="90" pan="0" />
          <note pos="7200" key="38" len="24" type="0" vol="90" pan="0" />
          <note pos="7224" key="38" len="24" type="0" vol="90" pan="0" />
          <note pos="7248" key="38" len="24" type="0" vol="90" pan="0" />
          <note pos="7272" key="38" len="24" type="0" vol="90" pan="0" />
          <note pos="7296" key="38" len="24" type="0" vol="90" pan="0" />
          <note pos="7320" key="38" len="24" type="0" vol="90" pan="0" />
          <note pos="7344" key="38" len="24" type="0" vol="90" pan="0" />
          <note pos="7368" key="38" len="24" type="0" vol="90" pan="0" />
          <note pos="7392" key="38" len="24" type="0" vol="90" pan="0" />
          <note pos="7416" key="38" len="24" type="0" vol="90" pan="0" />
          <note pos="7440" key="38" len="24" type="0" vol="90" pan="0" />
          <note pos="7464" key="38" len="24" type="0" vol="90" pan="0" />
          <note pos="7488" key="38" len="24" type="0" vol="90" pan="0" />
          <note pos="7512" key="38" len="24" type="0" vol="90" pan="0" />
          <note pos="7536" key="38" len="24" type="0" vol="90" pan="0" />
          <note pos="7560" key="38" len="24" type="0" vol="90" pan="0" />
          <note pos="7584" key="38" len="24" type="0" vol="90" pan="0" />
          <note pos="7608" key="38" len="24" type="0" vol="90" pan="0" />
          <note pos="7632" key="38" len="24" type="0" vol="90" pan="0" />
          <note pos="7656" key="38" len="24" type="0" vol="90" pan="0" />
          <note pos="7680" key="38" len="24" type="0" vol="90" pan="0" />
          <note pos="7704" key="38" len="24" type="0" vol="90" pan="0" />
          <note pos="7728" key="38" len="24" type="0" vol="90" pan="0" />
          <note pos="7752" key="38" len="24" type="0" vol="90" pan="0" />
          <note pos="7776" key="38" len="24" type="0" vol="90" pan="0" />
          <note pos="7800" key="38" len="24" type="0" vol="90" pan="0" />
          <note pos="7824" key="38" len="24" type="0" vol="90" pan="0" />
          <note pos="7848" key="38" len="24" type="0" vol="90" pan="0" />
          <note pos="7872" key="38" len="24" type="0" vol="90" pan="0" />
          <note pos="7896" key="38" len="24" type="0" vol="90" pan="0" />
          <note pos="7920" key="38" len="24" type="0" vol="90" pan="0" />
          <note pos="7944" key="38" len="24" type="0" vol="90" pan="0" />
          <note pos="7968" key="38" len="24" type="0" vol="90" pan="0" />
          <note pos="7992" key="38" len="24" type="0" vol="90" pan="0" />
          <note pos="8016" key="38" len="24" type="0" vol="90" pan="0" />
          <note pos="8040" key="38" len="24" type="0" vol="90" pan="0" />
          <note pos="8064" key="38" len="24" type="0" vol="90" pan="0" />
          <note pos="8088" key="38" len="24" type="0" vol="90" pan="0" />
          <note pos="8112" key="38" len="24" type="0" vol="90" pan="0" />
          <note pos="8136" key="38" len="24" type="0" vol="90" pan="0" />
          <note pos="8160" key="38" len="24" type="0" vol="90" pan="0" />
          <note pos="8184" key="38" len="24" type="0" vol="90" pan="0" />
          <note pos="8208" key="38" len="24" type="0" vol="90" pan="0" />
          <note pos="8232" key="38" len="24" type="0" vol="90" pan="0" />
          <note pos="8256" key="38" len="24" type="0" vol="90" pan="0" />
          <note pos="8280" key="38" len="24" type="0" vol="90" pan="0" />
          <note pos="8304" key="38" len="24" type="0" vol="90" pan="0" />
          <note pos="8328" key="38" len="24" type="0" vol="90" pan="0" />
          <note pos="8352" key="38" len="24" type="0" vol="90" pan="0" />
          <note pos="8376" key="38" len="24" type="0" vol="90" pan="0" />
          <note pos="8400" key="38" len="24" type="0" vol="90" pan="0" />
          <note pos="8424" key="38" len="24" type="0" vol="90" pan="0" />
          <note pos="8448" key="38" len="24" type="0" vol="90" pan="0" />
          <note pos="8472" key="38" len="24" type="0" vol="90" pan="0" />
          <note pos="8496" key="38" len="24" type="0" vol="90" pan="0" />
          <note pos="8520" key="38" len="24" type="0" vol="90" pan="0" />
          <note pos="8544" key="38" len="24" type="0" vol="90" pan="0" />
          <note pos="8568" key="38" len="24" type="0" vol="90" pan="0" />
          <note pos="8592" key="38" len="24" type="0" vol="90" pan="0" />
          <note pos="8616" key="38" len="24" type="0" vol="90" pan="0" />
          <note pos="8640" key="38" len="24" type="0" vol="90" pan="0" />
          <note pos="8664" key="38" len="24" type="0" vol="90" pan="0" />
          <note pos="8688" key="38" len="24" type="0" vol="90" pan="0" />
          <note pos="8712" key="38" len="24" type="0" vol="90" pan="0" />
          <note pos="8736" key="38" len="24" type="0" vol="90" pan="0" />
          <note pos="8760" key="38" len="24" type="0" vol="90" pan="0" />
          <note pos="8784" key="38" len="24" type="0" vol="90" pan="0" />
          <note pos="8808" key="38" len="24" type="0" vol="90" pan="0" />
          <note pos="8832" key="38" len="24" type="0" vol="100" pan="0" />
          <note pos="8856" key="38" len="24" type="0" vol="100" pan="0" />
          <note pos="8880" key="38" len="24" type="0" vol="100" pan="0" />
          <note pos="8904" key="38" len="24" type="0" vol="100" pan="0" />
          <note pos="8928" key="38" len="24" type="0" vol="100" pan="0" />
          <note pos="8952" key="38" len="24" type="0" vol="100" pan="0" />
          <note pos="8976" key="38" len="24" type="0" vol="100" pan="0" />
          <note pos="9000" key="38" len="24" type="0" vol="100" pan="0" />
          <note pos="9024" key="38" len="24" type="0" vol="100" pan="0" />
          <note pos="9048" key="38" len="24" type="0" vol="100" pan="0" />
          <note pos="9072" key="38" len="24" type="0" vol="100" pan="0" />
          <note pos="9096" key="38" len="24" type="0" vol="100" pan="0" />
          <note pos="9120" key="38" len="24" type="0" vol="100" pan="0" />
          <note pos="9144" key="38" len="24" type="0" vol="100" pan="0" />
          <note pos="9168" key="38" len="24" type="0" vol="100" pan="0" />
          <note pos="9192" key="38" len="24" type="0" vol="100" pan="0" />
        </midiclip>
      </track>
      <track type="5" mutedBeforeSolo="0" name="Bass Pitch Drop" muted="0" solo="0">
        <automationtrack />
        <automationclip pos="0" off="0" len="11520" prog="1" mute="0" name="Pitch Drop" autoresize="1" tens="1">
          <time pos="0" outTan="0" lockedTan="0" inTan="0" outValue="0" value="0" />
          <time pos="1536" outTan="0" lockedTan="0" inTan="0" outValue="-1400" value="-1400" />
          <time pos="1538" outTan="0" lockedTan="0" inTan="0" outValue="0" value="0" />
          <time pos="3072" outTan="0" lockedTan="0" inTan="0" outValue="-1400" value="-1400" />
          <time pos="3074" outTan="0" lockedTan="0" inTan="0" outValue="0" value="0" />
          <time pos="4608" outTan="0" lockedTan="0" inTan="0" outValue="-1400" value="-1400" />
          <time pos="4610" outTan="0" lockedTan="0" inTan="0" outValue="0" value="0" />
          <time pos="6144" outTan="0" lockedTan="0" inTan="0" outValue="-1400" value="-1400" />
          <object id="2922067"><automationtrack trackref="5" param="pitch" scale_type="linear" /><time pos="0" value="0" /><time pos="112" value="0" /><time pos="144" value="-2400" /><time pos="144.04166666666666" value="0" /><time pos="176" value="-2400" /><time pos="176.04166666666666" value="0" /><time pos="208" value="-2400" /><time pos="208.04166666666666" value="0" /><time pos="240" value="-2400" /></object>
        </automationclip>
        <automationclip pos="8448" off="0" len="3072" prog="1" mute="0" name="Pitch Drop 2" autoresize="1" tens="1" />
        </track>
      <track type="5" mutedBeforeSolo="0" name="Delay Ramp" muted="0" solo="0">
        <automationtrack />
        <automationclip pos="8448" off="0" len="3072" prog="1" mute="0" name="Delay Wet" autoresize="1" tens="1">
          <time pos="0" outTan="0" lockedTan="0" inTan="0" outValue="0" value="0" />
          <time pos="3072" outTan="0" lockedTan="0" inTan="0" outValue="100" value="100" />
        </automationclip>
      </track>
      <track type="0" mutedBeforeSolo="0" name="Retro Zaps" muted="0" solo="0">
        <instrumenttrack pitchrange="1" range_import="1" enablecc="0" vol="60" pitch="0" pan="0" usemasterpitch="1" scale="0" basenote="57" keymap="0" mixch="0" lastkey="127" enabled="0" firstkey="0">
          <midicontrollers cc63="0" cc91="0" cc109="0" cc60="0" cc117="0" cc29="0" cc102="0" cc19="0" cc1="0" cc87="0" cc92="0" cc113="0" cc104="0" cc58="0" cc96="0" cc42="0" cc100="0" cc114="0" cc123="0" cc82="0" cc24="0" cc118="0" cc67="0" cc14="0" cc15="0" cc28="0" cc0="0" cc70="0" cc46="0" cc98="0" cc116="0" cc36="0" cc20="0" cc77="0" cc111="0" cc11="0" cc10="0" cc59="0" cc5="0" cc39="0" cc75="0" cc71="0" cc12="0" cc108="0" cc84="0" cc105="0" cc80="0" cc103="0" cc6="0" cc26="0" cc88="0" cc53="0" cc69="0" cc3="0" cc65="0" cc127="0" cc37="0" cc64="0" cc49="0" cc48="0" cc21="0" cc90="0" cc106="0" cc112="0" cc78="0" cc85="0" cc76="0" cc126="0" cc119="0" cc18="0" cc68="0" cc93="0" cc50="0" cc4="0" cc74="0" cc107="0" cc122="0" cc55="0" cc125="0" cc97="0" cc120="0" cc81="0" cc89="0" cc32="0" cc73="0" cc79="0" cc115="0" cc7="0" cc2="0" cc30="0" cc99="0" cc101="0" cc124="0" cc45="0" cc44="0" cc38="0" cc54="0" cc72="0" cc83="0" cc52="0" cc66="0" cc110="0" cc17="0" cc34="0" cc31="0" cc51="0" cc22="0" cc95="0" cc23="0" cc56="0" cc13="0" cc41="0" cc86="0" cc121="0" cc27="0" cc9="0" cc57="0" cc16="0" cc33="0" cc25="0" cc61="0" cc94="0" cc40="0" cc62="0" cc43="0" cc35="0" cc8="0" cc47="0" />
          <instrument name="sf2player">
            <sf2player gain="1" chorusNum="3" patch="112" src="/home/struktured/projects/lmms-ai/projects/dubstep_drops/soundfonts/nes_soundfont.sf2" chorusLevel="2" reverbRoomSize="0.2" chorusOn="0" chorusSpeed="0.30000001" reverbLevel="0.89999998" chorusDepth="8" reverbOn="0" bank="0" reverbDamping="0" reverbWidth="0.5">
              <key />
            </sf2player>
          </instrument>
          <eldata fres="0.5" fwet="0" fcut="14000" ftype="0">
            <elvol lspd_denominator="4" ctlenvamt="0" amt="0" att="0" latt="0" pdel="0" dec="0.5" lspd="0.1" lshp="0" sustain="0.5" rel="0.1" lpdel="0" userwavefile="" x100="0" lspd_syncmode="0" lspd_numerator="4" hold="0.5" lamt="0" />
            <elcut lspd_denominator="4" ctlenvamt="0" amt="0" att="0" latt="0" pdel="0" dec="0.5" lspd="0.1" lshp="0" sustain="0.5" rel="0.1" lpdel="0" userwavefile="" x100="0" lspd_syncmode="0" lspd_numerator="4" hold="0.5" lamt="0" />
            <elres lspd_denominator="4" ctlenvamt="0" amt="0" att="0" latt="0" pdel="0" dec="0.5" lspd="0.1" lshp="0" sustain="0.5" rel="0.1" lpdel="0" userwavefile="" x100="0" lspd_syncmode="0" lspd_numerator="4" hold="0.5" lamt="0" />
          </eldata>
          <chordcreator chord="0" chord-enabled="0" chordrange="1" />
          <arpeggiator arprange="1" arpdir="0" arpmode="0" arp-enabled="0" arptime_denominator="4" arp="0" arpgate="100" arpskip="0" arprepeats="1" arpcycle="0" arptime_numerator="4" arpmiss="0" arptime="100" arptime_syncmode="0" />
          <midiport fixedoutputnote="-1" outputprogram="1" readable="0" writable="0" fixedoutputvelocity="-1" basevelocity="127" outputchannel="1" inputcontroller="-1" inputchannel="0" fixedinputvelocity="-1" outputcontroller="-1" />
          <fxchain numofeffects="0" enabled="0" />
        </instrumenttrack>
        <midiclip off="0" pos="9984" len="1536" type="1" steps="16" name="Retro Zaps Pattern" autoresize="1" muted="0">
          <note pos="0" key="60" len="3" type="0" vol="120" pan="0" />
          <note pos="3" key="61" len="3" type="0" vol="120" pan="0" />
          <note pos="6" key="62" len="3" type="0" vol="120" pan="0" />
          <note pos="9" key="63" len="3" type="0" vol="120" pan="0" />
          <note pos="24" key="64" len="3" type="0" vol="120" pan="0" />
          <note pos="27" key="65" len="3" type="0" vol="120" pan="0" />
          <note pos="30" key="66" len="3" type="0" vol="120" pan="0" />
          <note pos="33" key="67" len="3" type="0" vol="120" pan="0" />
          <note pos="48" key="66" len="3" type="0" vol="120" pan="0" />
          <note pos="51" key="65" len="3" type="0" vol="120" pan="0" />
          <note pos="54" key="64" len="3" type="0" vol="120" pan="0" />
          <note pos="57" key="63" len="3" type="0" vol="120" pan="0" />
          <note pos="72" key="62" len="3" type="0" vol="120" pan="0" />
          <note pos="75" key="61" len="3" type="0" vol="120" pan="0" />
          <note pos="78" key="60" len="3" type="0" vol="120" pan="0" />
          <note pos="81" key="60" len="3" type="0" vol="120" pan="0" />
          <note pos="96" key="61" len="3" type="0" vol="120" pan="0" />
          <note pos="99" key="62" len="3" type="0" vol="120" pan="0" />
          <note pos="102" key="63" len="3" type="0" vol="120" pan="0" />
          <note pos="105" key="64" len="3" type="0" vol="120" pan="0" />
          <note pos="120" key="65" len="3" type="0" vol="120" pan="0" />
          <note pos="123" key="66" len="3" type="0" vol="120" pan="0" />
          <note pos="126" key="67" len="3" type="0" vol="120" pan="0" />
          <note pos="129" key="66" len="3" type="0" vol="120" pan="0" />
          <note pos="144" key="65" len="3" type="0" vol="120" pan="0" />
          <note pos="147" key="64" len="3" type="0" vol="120" pan="0" />
          <note pos="150" key="63" len="3" type="0" vol="120" pan="0" />
          <note pos="153" key="62" len="3" type="0" vol="120" pan="0" />
          <note pos="168" key="61" len="3" type="0" vol="120" pan="0" />
          <note pos="171" key="60" len="3" type="0" vol="120" pan="0" />
          <note pos="174" key="60" len="3" type="0" vol="120" pan="0" />
          <note pos="177" key="61" len="3" type="0" vol="120" pan="0" />
          <note pos="192" key="62" len="3" type="0" vol="120" pan="0" />
          <note pos="195" key="63" len="3" type="0" vol="120" pan="0" />
          <note pos="198" key="64" len="3" type="0" vol="120" pan="0" />
          <note pos="201" key="65" len="3" type="0" vol="120" pan="0" />
          <note pos="216" key="66" len="3" type="0" vol="120" pan="0" />
          <note pos="219" key="67" len="3" type="0" vol="120" pan="0" />
          <note pos="222" key="66" len="3" type="0" vol="120" pan="0" />
          <note pos="225" key="65" len="3" type="0" vol="120" pan="0" />
          <note pos="240" key="64" len="3" type="0" vol="120" pan="0" />
          <note pos="243" key="63" len="3" type="0" vol="120" pan="0" />
          <note pos="246" key="62" len="3" type="0" vol="120" pan="0" />
          <note pos="249" key="61" len="3" type="0" vol="120" pan="0" />
          <note pos="264" key="60" len="3" type="0" vol="120" pan="0" />
          <note pos="267" key="60" len="3" type="0" vol="120" pan="0" />
          <note pos="270" key="61" len="3" type="0" vol="120" pan="0" />
          <note pos="273" key="62" len="3" type="0" vol="120" pan="0" />
          <note pos="288" key="63" len="3" type="0" vol="120" pan="0" />
          <note pos="291" key="64" len="3" type="0" vol="120" pan="0" />
          <note pos="294" key="65" len="3" type="0" vol="120" pan="0" />
          <note pos="297" key="66" len="3" type="0" vol="120" pan="0" />
          <note pos="312" key="67" len="3" type="0" vol="120" pan="0" />
          <note pos="315" key="66" len="3" type="0" vol="120" pan="0" />
          <note pos="318" key="65" len="3" type="0" vol="120" pan="0" />
          <note pos="321" key="64" len="3" type="0" vol="120" pan="0" />
          <note pos="336" key="63" len="3" type="0" vol="120" pan="0" />
          <note pos="339" key="62" len="3" type="0" vol="120" pan="0" />
          <note pos="342" key="61" len="3" type="0" vol="120" pan="0" />
          <note pos="345" key="60" len="3" type="0" vol="120" pan="0" />
          <note pos="360" key="60" len="3" type="0" vol="120" pan="0" />
          <note pos="363" key="61" len="3" type="0" vol="120" pan="0" />
          <note pos="366" key="62" len="3" type="0" vol="120" pan="0" />
          <note pos="369" key="63" len="3" type="0" vol="120" pan="0" />
          <note pos="384" key="64" len="3" type="0" vol="120" pan="0" />
          <note pos="387" key="65" len="3" type="0" vol="120" pan="0" />
          <note pos="390" key="66" len="3" type="0" vol="120" pan="0" />
          <note pos="393" key="67" len="3" type="0" vol="120" pan="0" />
          <note pos="408" key="66" len="3" type="0" vol="120" pan="0" />
          <note pos="411" key="65" len="3" type="0" vol="120" pan="0" />
          <note pos="414" key="64" len="3" type="0" vol="120" pan="0" />
          <note pos="417" key="63" len="3" type="0" vol="120" pan="0" />
          <note pos="432" key="62" len="3" type="0" vol="120" pan="0" />
          <note pos="435" key="61" len="3" type="0" vol="120" pan="0" />
          <note pos="438" key="60" len="3" type="0" vol="120" pan="0" />
          <note pos="441" key="60" len="3" type="0" vol="120" pan="0" />
          <note pos="456" key="61" len="3" type="0" vol="120" pan="0" />
          <note pos="459" key="62" len="3" type="0" vol="120" pan="0" />
          <note pos="462" key="63" len="3" type="0" vol="120" pan="0" />
          <note pos="465" key="64" len="3" type="0" vol="120" pan="0" />
          <note pos="480" key="65" len="3" type="0" vol="120" pan="0" />
          <note pos="483" key="66" len="3" type="0" vol="120" pan="0" />
          <note pos="486" key="67" len="3" type="0" vol="120" pan="0" />
          <note pos="489" key="66" len="3" type="0" vol="120" pan="0" />
          <note pos="504" key="65" len="3" type="0" vol="120" pan="0" />
          <note pos="507" key="64" len="3" type="0" vol="120" pan="0" />
          <note pos="510" key="63" len="3" type="0" vol="120" pan="0" />
          <note pos="513" key="62" len="3" type="0" vol="120" pan="0" />
          <note pos="528" key="61" len="3" type="0" vol="120" pan="0" />
          <note pos="531" key="60" len="3" type="0" vol="120" pan="0" />
          <note pos="534" key="60" len="3" type="0" vol="120" pan="0" />
          <note pos="537" key="61" len="3" type="0" vol="120" pan="0" />
          <note pos="552" key="62" len="3" type="0" vol="120" pan="0" />
          <note pos="555" key="63" len="3" type="0" vol="120" pan="0" />
          <note pos="558" key="64" len="3" type="0" vol="120" pan="0" />
          <note pos="561" key="65" len="3" type="0" vol="120" pan="0" />
          <note pos="576" key="66" len="3" type="0" vol="120" pan="0" />
          <note pos="579" key="67" len="3" type="0" vol="120" pan="0" />
          <note pos="582" key="66" len="3" type="0" vol="120" pan="0" />
          <note pos="585" key="65" len="3" type="0" vol="120" pan="0" />
          <note pos="600" key="64" len="3" type="0" vol="120" pan="0" />
          <note pos="603" key="63" len="3" type="0" vol="120" pan="0" />
          <note pos="606" key="62" len="3" type="0" vol="120" pan="0" />
          <note pos="609" key="61" len="3" type="0" vol="120" pan="0" />
          <note pos="624" key="60" len="3" type="0" vol="120" pan="0" />
          <note pos="627" key="60" len="3" type="0" vol="120" pan="0" />
          <note pos="630" key="61" len="3" type="0" vol="120" pan="0" />
          <note pos="633" key="62" len="3" type="0" vol="120" pan="0" />
          <note pos="648" key="63" len="3" type="0" vol="120" pan="0" />
          <note pos="651" key="64" len="3" type="0" vol="120" pan="0" />
          <note pos="654" key="65" len="3" type="0" vol="120" pan="0" />
          <note pos="657" key="66" len="3" type="0" vol="120" pan="0" />
          <note pos="672" key="67" len="3" type="0" vol="120" pan="0" />
          <note pos="675" key="66" len="3" type="0" vol="120" pan="0" />
          <note pos="678" key="65" len="3" type="0" vol="120" pan="0" />
          <note pos="681" key="64" len="3" type="0" vol="120" pan="0" />
          <note pos="696" key="63" len="3" type="0" vol="120" pan="0" />
          <note pos="699" key="62" len="3" type="0" vol="120" pan="0" />
          <note pos="702" key="61" len="3" type="0" vol="120" pan="0" />
          <note pos="705" key="60" len="3" type="0" vol="120" pan="0" />
          <note pos="720" key="60" len="3" type="0" vol="120" pan="0" />
          <note pos="723" key="61" len="3" type="0" vol="120" pan="0" />
          <note pos="726" key="62" len="3" type="0" vol="120" pan="0" />
          <note pos="729" key="63" len="3" type="0" vol="120" pan="0" />
          <note pos="744" key="64" len="3" type="0" vol="120" pan="0" />
          <note pos="747" key="65" len="3" type="0" vol="120" pan="0" />
          <note pos="750" key="66" len="3" type="0" vol="120" pan="0" />
          <note pos="753" key="67" len="3" type="0" vol="120" pan="0" />
          <note pos="768" key="66" len="3" type="0" vol="120" pan="0" />
          <note pos="771" key="65" len="3" type="0" vol="120" pan="0" />
          <note pos="774" key="64" len="3" type="0" vol="120" pan="0" />
          <note pos="777" key="63" len="3" type="0" vol="120" pan="0" />
          <note pos="792" key="62" len="3" type="0" vol="120" pan="0" />
          <note pos="795" key="61" len="3" type="0" vol="120" pan="0" />
          <note pos="798" key="60" len="3" type="0" vol="120" pan="0" />
          <note pos="801" key="60" len="3" type="0" vol="120" pan="0" />
          <note pos="816" key="61" len="3" type="0" vol="120" pan="0" />
          <note pos="819" key="62" len="3" type="0" vol="120" pan="0" />
          <note pos="822" key="63" len="3" type="0" vol="120" pan="0" />
          <note pos="825" key="64" len="3" type="0" vol="120" pan="0" />
          <note pos="840" key="65" len="3" type="0" vol="120" pan="0" />
          <note pos="843" key="66" len="3" type="0" vol="120" pan="0" />
          <note pos="846" key="67" len="3" type="0" vol="120" pan="0" />
          <note pos="849" key="66" len="3" type="0" vol="120" pan="0" />
          <note pos="864" key="65" len="3" type="0" vol="120" pan="0" />
          <note pos="867" key="64" len="3" type="0" vol="120" pan="0" />
          <note pos="870" key="63" len="3" type="0" vol="120" pan="0" />
          <note pos="873" key="62" len="3" type="0" vol="120" pan="0" />
          <note pos="888" key="61" len="3" type="0" vol="120" pan="0" />
          <note pos="891" key="60" len="3" type="0" vol="120" pan="0" />
          <note pos="894" key="60" len="3" type="0" vol="120" pan="0" />
          <note pos="897" key="61" len="3" type="0" vol="120" pan="0" />
          <note pos="912" key="62" len="3" type="0" vol="120" pan="0" />
          <note pos="915" key="63" len="3" type="0" vol="120" pan="0" />
          <note pos="918" key="64" len="3" type="0" vol="120" pan="0" />
          <note pos="921" key="65" len="3" type="0" vol="120" pan="0" />
          <note pos="936" key="66" len="3" type="0" vol="120" pan="0" />
          <note pos="939" key="67" len="3" type="0" vol="120" pan="0" />
          <note pos="942" key="66" len="3" type="0" vol="120" pan="0" />
          <note pos="945" key="65" len="3" type="0" vol="120" pan="0" />
          <note pos="960" key="64" len="3" type="0" vol="120" pan="0" />
          <note pos="963" key="63" len="3" type="0" vol="120" pan="0" />
          <note pos="966" key="62" len="3" type="0" vol="120" pan="0" />
          <note pos="969" key="61" len="3" type="0" vol="120" pan="0" />
          <note pos="984" key="60" len="3" type="0" vol="120" pan="0" />
          <note pos="987" key="60" len="3" type="0" vol="120" pan="0" />
          <note pos="990" key="61" len="3" type="0" vol="120" pan="0" />
          <note pos="993" key="62" len="3" type="0" vol="120" pan="0" />
          <note pos="1008" key="63" len="3" type="0" vol="120" pan="0" />
          <note pos="1011" key="64" len="3" type="0" vol="120" pan="0" />
          <note pos="1014" key="65" len="3" type="0" vol="120" pan="0" />
          <note pos="1017" key="66" len="3" type="0" vol="120" pan="0" />
          <note pos="1032" key="67" len="3" type="0" vol="120" pan="0" />
          <note pos="1035" key="66" len="3" type="0" vol="120" pan="0" />
          <note pos="1038" key="65" len="3" type="0" vol="120" pan="0" />
          <note pos="1041" key="64" len="3" type="0" vol="120" pan="0" />
          <note pos="1056" key="63" len="3" type="0" vol="120" pan="0" />
          <note pos="1059" key="62" len="3" type="0" vol="120" pan="0" />
          <note pos="1062" key="61" len="3" type="0" vol="120" pan="0" />
          <note pos="1065" key="60" len="3" type="0" vol="120" pan="0" />
          <note pos="1080" key="60" len="3" type="0" vol="120" pan="0" />
          <note pos="1083" key="61" len="3" type="0" vol="120" pan="0" />
          <note pos="1086" key="62" len="3" type="0" vol="120" pan="0" />
          <note pos="1089" key="63" len="3" type="0" vol="120" pan="0" />
          <note pos="1104" key="64" len="3" type="0" vol="120" pan="0" />
          <note pos="1107" key="65" len="3" type="0" vol="120" pan="0" />
          <note pos="1110" key="66" len="3" type="0" vol="120" pan="0" />
          <note pos="1113" key="67" len="3" type="0" vol="120" pan="0" />
          <note pos="1128" key="66" len="3" type="0" vol="120" pan="0" />
          <note pos="1131" key="65" len="3" type="0" vol="120" pan="0" />
          <note pos="1134" key="64" len="3" type="0" vol="120" pan="0" />
          <note pos="1137" key="63" len="3" type="0" vol="120" pan="0" />
          <note pos="1152" key="62" len="3" type="0" vol="120" pan="0" />
          <note pos="1155" key="61" len="3" type="0" vol="120" pan="0" />
          <note pos="1158" key="60" len="3" type="0" vol="120" pan="0" />
          <note pos="1161" key="60" len="3" type="0" vol="120" pan="0" />
          <note pos="1176" key="61" len="3" type="0" vol="120" pan="0" />
          <note pos="1179" key="62" len="3" type="0" vol="120" pan="0" />
          <note pos="1182" key="63" len="3" type="0" vol="120" pan="0" />
          <note pos="1185" key="64" len="3" type="0" vol="120" pan="0" />
          <note pos="1200" key="65" len="3" type="0" vol="120" pan="0" />
          <note pos="1203" key="66" len="3" type="0" vol="120" pan="0" />
          <note pos="1206" key="67" len="3" type="0" vol="120" pan="0" />
          <note pos="1209" key="66" len="3" type="0" vol="120" pan="0" />
          <note pos="1224" key="65" len="3" type="0" vol="120" pan="0" />
          <note pos="1227" key="64" len="3" type="0" vol="120" pan="0" />
          <note pos="1230" key="63" len="3" type="0" vol="120" pan="0" />
          <note pos="1233" key="62" len="3" type="0" vol="120" pan="0" />
          <note pos="1248" key="61" len="3" type="0" vol="120" pan="0" />
          <note pos="1251" key="60" len="3" type="0" vol="120" pan="0" />
          <note pos="1254" key="60" len="3" type="0" vol="120" pan="0" />
          <note pos="1257" key="61" len="3" type="0" vol="120" pan="0" />
          <note pos="1272" key="62" len="3" type="0" vol="120" pan="0" />
          <note pos="1275" key="63" len="3" type="0" vol="120" pan="0" />
          <note pos="1278" key="64" len="3" type="0" vol="120" pan="0" />
          <note pos="1281" key="65" len="3" type="0" vol="120" pan="0" />
          <note pos="1296" key="66" len="3" type="0" vol="120" pan="0" />
          <note pos="1299" key="67" len="3" type="0" vol="120" pan="0" />
          <note pos="1302" key="66" len="3" type="0" vol="120" pan="0" />
          <note pos="1305" key="65" len="3" type="0" vol="120" pan="0" />
          <note pos="1320" key="64" len="3" type="0" vol="120" pan="0" />
          <note pos="1323" key="63" len="3" type="0" vol="120" pan="0" />
          <note pos="1326" key="62" len="3" type="0" vol="120" pan="0" />
          <note pos="1329" key="61" len="3" type="0" vol="120" pan="0" />
          <note pos="1344" key="60" len="3" type="0" vol="120" pan="0" />
          <note pos="1347" key="60" len="3" type="0" vol="120" pan="0" />
          <note pos="1350" key="61" len="3" type="0" vol="120" pan="0" />
          <note pos="1353" key="62" len="3" type="0" vol="120" pan="0" />
          <note pos="1368" key="63" len="3" type="0" vol="120" pan="0" />
          <note pos="1371" key="64" len="3" type="0" vol="120" pan="0" />
          <note pos="1374" key="65" len="3" type="0" vol="120" pan="0" />
          <note pos="1377" key="66" len="3" type="0" vol="120" pan="0" />
          <note pos="1392" key="67" len="3" type="0" vol="120" pan="0" />
          <note pos="1395" key="66" len="3" type="0" vol="120" pan="0" />
          <note pos="1398" key="65" len="3" type="0" vol="120" pan="0" />
          <note pos="1401" key="64" len="3" type="0" vol="120" pan="0" />
          <note pos="1416" key="63" len="3" type="0" vol="120" pan="0" />
          <note pos="1419" key="62" len="3" type="0" vol="120" pan="0" />
          <note pos="1422" key="61" len="3" type="0" vol="120" pan="0" />
          <note pos="1425" key="60" len="3" type="0" vol="120" pan="0" />
          <note pos="1440" key="60" len="3" type="0" vol="120" pan="0" />
          <note pos="1443" key="61" len="3" type="0" vol="120" pan="0" />
          <note pos="1446" key="62" len="3" type="0" vol="120" pan="0" />
          <note pos="1449" key="63" len="3" type="0" vol="120" pan="0" />
          <note pos="1464" key="64" len="3" type="0" vol="120" pan="0" />
          <note pos="1467" key="65" len="3" type="0" vol="120" pan="0" />
          <note pos="1470" key="66" len="3" type="0" vol="120" pan="0" />
          <note pos="1473" key="67" len="3" type="0" vol="120" pan="0" />
          <note pos="1488" key="66" len="3" type="0" vol="120" pan="0" />
          <note pos="1491" key="65" len="3" type="0" vol="120" pan="0" />
          <note pos="1494" key="64" len="3" type="0" vol="120" pan="0" />
          <note pos="1497" key="63" len="3" type="0" vol="120" pan="0" />
          <note pos="1512" key="62" len="3" type="0" vol="120" pan="0" />
          <note pos="1515" key="61" len="3" type="0" vol="120" pan="0" />
          <note pos="1518" key="60" len="3" type="0" vol="120" pan="0" />
          <note pos="1521" key="60" len="3" type="0" vol="120" pan="0" />
        </midiclip>
        <midiclip off="0" pos="8448" len="1536" type="1" steps="16" name="Retro Zaps Pattern" autoresize="1" muted="0">
          <note pos="0" key="60" len="3" type="0" vol="120" pan="0" />
          <note pos="3" key="61" len="3" type="0" vol="120" pan="0" />
          <note pos="6" key="62" len="3" type="0" vol="120" pan="0" />
          <note pos="9" key="63" len="3" type="0" vol="120" pan="0" />
          <note pos="24" key="64" len="3" type="0" vol="120" pan="0" />
          <note pos="27" key="65" len="3" type="0" vol="120" pan="0" />
          <note pos="30" key="66" len="3" type="0" vol="120" pan="0" />
          <note pos="33" key="67" len="3" type="0" vol="120" pan="0" />
          <note pos="48" key="66" len="3" type="0" vol="120" pan="0" />
          <note pos="51" key="65" len="3" type="0" vol="120" pan="0" />
          <note pos="54" key="64" len="3" type="0" vol="120" pan="0" />
          <note pos="57" key="63" len="3" type="0" vol="120" pan="0" />
          <note pos="72" key="62" len="3" type="0" vol="120" pan="0" />
          <note pos="75" key="61" len="3" type="0" vol="120" pan="0" />
          <note pos="78" key="60" len="3" type="0" vol="120" pan="0" />
          <note pos="81" key="60" len="3" type="0" vol="120" pan="0" />
          <note pos="96" key="61" len="3" type="0" vol="120" pan="0" />
          <note pos="99" key="62" len="3" type="0" vol="120" pan="0" />
          <note pos="102" key="63" len="3" type="0" vol="120" pan="0" />
          <note pos="105" key="64" len="3" type="0" vol="120" pan="0" />
          <note pos="120" key="65" len="3" type="0" vol="120" pan="0" />
          <note pos="123" key="66" len="3" type="0" vol="120" pan="0" />
          <note pos="126" key="67" len="3" type="0" vol="120" pan="0" />
          <note pos="129" key="66" len="3" type="0" vol="120" pan="0" />
          <note pos="144" key="65" len="3" type="0" vol="120" pan="0" />
          <note pos="147" key="64" len="3" type="0" vol="120" pan="0" />
          <note pos="150" key="63" len="3" type="0" vol="120" pan="0" />
          <note pos="153" key="62" len="3" type="0" vol="120" pan="0" />
          <note pos="168" key="61" len="3" type="0" vol="120" pan="0" />
          <note pos="171" key="60" len="3" type="0" vol="120" pan="0" />
          <note pos="174" key="60" len="3" type="0" vol="120" pan="0" />
          <note pos="177" key="61" len="3" type="0" vol="120" pan="0" />
          <note pos="192" key="62" len="3" type="0" vol="120" pan="0" />
          <note pos="195" key="63" len="3" type="0" vol="120" pan="0" />
          <note pos="198" key="64" len="3" type="0" vol="120" pan="0" />
          <note pos="201" key="65" len="3" type="0" vol="120" pan="0" />
          <note pos="216" key="66" len="3" type="0" vol="120" pan="0" />
          <note pos="219" key="67" len="3" type="0" vol="120" pan="0" />
          <note pos="222" key="66" len="3" type="0" vol="120" pan="0" />
          <note pos="225" key="65" len="3" type="0" vol="120" pan="0" />
          <note pos="240" key="64" len="3" type="0" vol="120" pan="0" />
          <note pos="243" key="63" len="3" type="0" vol="120" pan="0" />
          <note pos="246" key="62" len="3" type="0" vol="120" pan="0" />
          <note pos="249" key="61" len="3" type="0" vol="120" pan="0" />
          <note pos="264" key="60" len="3" type="0" vol="120" pan="0" />
          <note pos="267" key="60" len="3" type="0" vol="120" pan="0" />
          <note pos="270" key="61" len="3" type="0" vol="120" pan="0" />
          <note pos="273" key="62" len="3" type="0" vol="120" pan="0" />
          <note pos="288" key="63" len="3" type="0" vol="120" pan="0" />
          <note pos="291" key="64" len="3" type="0" vol="120" pan="0" />
          <note pos="294" key="65" len="3" type="0" vol="120" pan="0" />
          <note pos="297" key="66" len="3" type="0" vol="120" pan="0" />
          <note pos="312" key="67" len="3" type="0" vol="120" pan="0" />
          <note pos="315" key="66" len="3" type="0" vol="120" pan="0" />
          <note pos="318" key="65" len="3" type="0" vol="120" pan="0" />
          <note pos="321" key="64" len="3" type="0" vol="120" pan="0" />
          <note pos="336" key="63" len="3" type="0" vol="120" pan="0" />
          <note pos="339" key="62" len="3" type="0" vol="120" pan="0" />
          <note pos="342" key="61" len="3" type="0" vol="120" pan="0" />
          <note pos="345" key="60" len="3" type="0" vol="120" pan="0" />
          <note pos="360" key="60" len="3" type="0" vol="120" pan="0" />
          <note pos="363" key="61" len="3" type="0" vol="120" pan="0" />
          <note pos="366" key="62" len="3" type="0" vol="120" pan="0" />
          <note pos="369" key="63" len="3" type="0" vol="120" pan="0" />
          <note pos="384" key="64" len="3" type="0" vol="120" pan="0" />
          <note pos="387" key="65" len="3" type="0" vol="120" pan="0" />
          <note pos="390" key="66" len="3" type="0" vol="120" pan="0" />
          <note pos="393" key="67" len="3" type="0" vol="120" pan="0" />
          <note pos="408" key="66" len="3" type="0" vol="120" pan="0" />
          <note pos="411" key="65" len="3" type="0" vol="120" pan="0" />
          <note pos="414" key="64" len="3" type="0" vol="120" pan="0" />
          <note pos="417" key="63" len="3" type="0" vol="120" pan="0" />
          <note pos="432" key="62" len="3" type="0" vol="120" pan="0" />
          <note pos="435" key="61" len="3" type="0" vol="120" pan="0" />
          <note pos="438" key="60" len="3" type="0" vol="120" pan="0" />
          <note pos="441" key="60" len="3" type="0" vol="120" pan="0" />
          <note pos="456" key="61" len="3" type="0" vol="120" pan="0" />
          <note pos="459" key="62" len="3" type="0" vol="120" pan="0" />
          <note pos="462" key="63" len="3" type="0" vol="120" pan="0" />
          <note pos="465" key="64" len="3" type="0" vol="120" pan="0" />
          <note pos="480" key="65" len="3" type="0" vol="120" pan="0" />
          <note pos="483" key="66" len="3" type="0" vol="120" pan="0" />
          <note pos="486" key="67" len="3" type="0" vol="120" pan="0" />
          <note pos="489" key="66" len="3" type="0" vol="120" pan="0" />
          <note pos="504" key="65" len="3" type="0" vol="120" pan="0" />
          <note pos="507" key="64" len="3" type="0" vol="120" pan="0" />
          <note pos="510" key="63" len="3" type="0" vol="120" pan="0" />
          <note pos="513" key="62" len="3" type="0" vol="120" pan="0" />
          <note pos="528" key="61" len="3" type="0" vol="120" pan="0" />
          <note pos="531" key="60" len="3" type="0" vol="120" pan="0" />
          <note pos="534" key="60" len="3" type="0" vol="120" pan="0" />
          <note pos="537" key="61" len="3" type="0" vol="120" pan="0" />
          <note pos="552" key="62" len="3" type="0" vol="120" pan="0" />
          <note pos="555" key="63" len="3" type="0" vol="120" pan="0" />
          <note pos="558" key="64" len="3" type="0" vol="120" pan="0" />
          <note pos="561" key="65" len="3" type="0" vol="120" pan="0" />
          <note pos="576" key="66" len="3" type="0" vol="120" pan="0" />
          <note pos="579" key="67" len="3" type="0" vol="120" pan="0" />
          <note pos="582" key="66" len="3" type="0" vol="120" pan="0" />
          <note pos="585" key="65" len="3" type="0" vol="120" pan="0" />
          <note pos="600" key="64" len="3" type="0" vol="120" pan="0" />
          <note pos="603" key="63" len="3" type="0" vol="120" pan="0" />
          <note pos="606" key="62" len="3" type="0" vol="120" pan="0" />
          <note pos="609" key="61" len="3" type="0" vol="120" pan="0" />
          <note pos="624" key="60" len="3" type="0" vol="120" pan="0" />
          <note pos="627" key="60" len="3" type="0" vol="120" pan="0" />
          <note pos="630" key="61" len="3" type="0" vol="120" pan="0" />
          <note pos="633" key="62" len="3" type="0" vol="120" pan="0" />
          <note pos="648" key="63" len="3" type="0" vol="120" pan="0" />
          <note pos="651" key="64" len="3" type="0" vol="120" pan="0" />
          <note pos="654" key="65" len="3" type="0" vol="120" pan="0" />
          <note pos="657" key="66" len="3" type="0" vol="120" pan="0" />
          <note pos="672" key="67" len="3" type="0" vol="120" pan="0" />
          <note pos="675" key="66" len="3" type="0" vol="120" pan="0" />
          <note pos="678" key="65" len="3" type="0" vol="120" pan="0" />
          <note pos="681" key="64" len="3" type="0" vol="120" pan="0" />
          <note pos="696" key="63" len="3" type="0" vol="120" pan="0" />
          <note pos="699" key="62" len="3" type="0" vol="120" pan="0" />
          <note pos="702" key="61" len="3" type="0" vol="120" pan="0" />
          <note pos="705" key="60" len="3" type="0" vol="120" pan="0" />
          <note pos="720" key="60" len="3" type="0" vol="120" pan="0" />
          <note pos="723" key="61" len="3" type="0" vol="120" pan="0" />
          <note pos="726" key="62" len="3" type="0" vol="120" pan="0" />
          <note pos="729" key="63" len="3" type="0" vol="120" pan="0" />
          <note pos="744" key="64" len="3" type="0" vol="120" pan="0" />
          <note pos="747" key="65" len="3" type="0" vol="120" pan="0" />
          <note pos="750" key="66" len="3" type="0" vol="120" pan="0" />
          <note pos="753" key="67" len="3" type="0" vol="120" pan="0" />
          <note pos="768" key="66" len="3" type="0" vol="120" pan="0" />
          <note pos="771" key="65" len="3" type="0" vol="120" pan="0" />
          <note pos="774" key="64" len="3" type="0" vol="120" pan="0" />
          <note pos="777" key="63" len="3" type="0" vol="120" pan="0" />
          <note pos="792" key="62" len="3" type="0" vol="120" pan="0" />
          <note pos="795" key="61" len="3" type="0" vol="120" pan="0" />
          <note pos="798" key="60" len="3" type="0" vol="120" pan="0" />
          <note pos="801" key="60" len="3" type="0" vol="120" pan="0" />
          <note pos="816" key="61" len="3" type="0" vol="120" pan="0" />
          <note pos="819" key="62" len="3" type="0" vol="120" pan="0" />
          <note pos="822" key="63" len="3" type="0" vol="120" pan="0" />
          <note pos="825" key="64" len="3" type="0" vol="120" pan="0" />
          <note pos="840" key="65" len="3" type="0" vol="120" pan="0" />
          <note pos="843" key="66" len="3" type="0" vol="120" pan="0" />
          <note pos="846" key="67" len="3" type="0" vol="120" pan="0" />
          <note pos="849" key="66" len="3" type="0" vol="120" pan="0" />
          <note pos="864" key="65" len="3" type="0" vol="120" pan="0" />
          <note pos="867" key="64" len="3" type="0" vol="120" pan="0" />
          <note pos="870" key="63" len="3" type="0" vol="120" pan="0" />
          <note pos="873" key="62" len="3" type="0" vol="120" pan="0" />
          <note pos="888" key="61" len="3" type="0" vol="120" pan="0" />
          <note pos="891" key="60" len="3" type="0" vol="120" pan="0" />
          <note pos="894" key="60" len="3" type="0" vol="120" pan="0" />
          <note pos="897" key="61" len="3" type="0" vol="120" pan="0" />
          <note pos="912" key="62" len="3" type="0" vol="120" pan="0" />
          <note pos="915" key="63" len="3" type="0" vol="120" pan="0" />
          <note pos="918" key="64" len="3" type="0" vol="120" pan="0" />
          <note pos="921" key="65" len="3" type="0" vol="120" pan="0" />
          <note pos="936" key="66" len="3" type="0" vol="120" pan="0" />
          <note pos="939" key="67" len="3" type="0" vol="120" pan="0" />
          <note pos="942" key="66" len="3" type="0" vol="120" pan="0" />
          <note pos="945" key="65" len="3" type="0" vol="120" pan="0" />
          <note pos="960" key="64" len="3" type="0" vol="120" pan="0" />
          <note pos="963" key="63" len="3" type="0" vol="120" pan="0" />
          <note pos="966" key="62" len="3" type="0" vol="120" pan="0" />
          <note pos="969" key="61" len="3" type="0" vol="120" pan="0" />
          <note pos="984" key="60" len="3" type="0" vol="120" pan="0" />
          <note pos="987" key="60" len="3" type="0" vol="120" pan="0" />
          <note pos="990" key="61" len="3" type="0" vol="120" pan="0" />
          <note pos="993" key="62" len="3" type="0" vol="120" pan="0" />
          <note pos="1008" key="63" len="3" type="0" vol="120" pan="0" />
          <note pos="1011" key="64" len="3" type="0" vol="120" pan="0" />
          <note pos="1014" key="65" len="3" type="0" vol="120" pan="0" />
          <note pos="1017" key="66" len="3" type="0" vol="120" pan="0" />
          <note pos="1032" key="67" len="3" type="0" vol="120" pan="0" />
          <note pos="1035" key="66" len="3" type="0" vol="120" pan="0" />
          <note pos="1038" key="65" len="3" type="0" vol="120" pan="0" />
          <note pos="1041" key="64" len="3" type="0" vol="120" pan="0" />
          <note pos="1056" key="63" len="3" type="0" vol="120" pan="0" />
          <note pos="1059" key="62" len="3" type="0" vol="120" pan="0" />
          <note pos="1062" key="61" len="3" type="0" vol="120" pan="0" />
          <note pos="1065" key="60" len="3" type="0" vol="120" pan="0" />
          <note pos="1080" key="60" len="3" type="0" vol="120" pan="0" />
          <note pos="1083" key="61" len="3" type="0" vol="120" pan="0" />
          <note pos="1086" key="62" len="3" type="0" vol="120" pan="0" />
          <note pos="1089" key="63" len="3" type="0" vol="120" pan="0" />
          <note pos="1104" key="64" len="3" type="0" vol="120" pan="0" />
          <note pos="1107" key="65" len="3" type="0" vol="120" pan="0" />
          <note pos="1110" key="66" len="3" type="0" vol="120" pan="0" />
          <note pos="1113" key="67" len="3" type="0" vol="120" pan="0" />
          <note pos="1128" key="66" len="3" type="0" vol="120" pan="0" />
          <note pos="1131" key="65" len="3" type="0" vol="120" pan="0" />
          <note pos="1134" key="64" len="3" type="0" vol="120" pan="0" />
          <note pos="1137" key="63" len="3" type="0" vol="120" pan="0" />
          <note pos="1152" key="62" len="3" type="0" vol="120" pan="0" />
          <note pos="1155" key="61" len="3" type="0" vol="120" pan="0" />
          <note pos="1158" key="60" len="3" type="0" vol="120" pan="0" />
          <note pos="1161" key="60" len="3" type="0" vol="120" pan="0" />
          <note pos="1176" key="61" len="3" type="0" vol="120" pan="0" />
          <note pos="1179" key="62" len="3" type="0" vol="120" pan="0" />
          <note pos="1182" key="63" len="3" type="0" vol="120" pan="0" />
          <note pos="1185" key="64" len="3" type="0" vol="120" pan="0" />
          <note pos="1200" key="65" len="3" type="0" vol="120" pan="0" />
          <note pos="1203" key="66" len="3" type="0" vol="120" pan="0" />
          <note pos="1206" key="67" len="3" type="0" vol="120" pan="0" />
          <note pos="1209" key="66" len="3" type="0" vol="120" pan="0" />
          <note pos="1224" key="65" len="3" type="0" vol="120" pan="0" />
          <note pos="1227" key="64" len="3" type="0" vol="120" pan="0" />
          <note pos="1230" key="63" len="3" type="0" vol="120" pan="0" />
          <note pos="1233" key="62" len="3" type="0" vol="120" pan="0" />
          <note pos="1248" key="61" len="3" type="0" vol="120" pan="0" />
          <note pos="1251" key="60" len="3" type="0" vol="120" pan="0" />
          <note pos="1254" key="60" len="3" type="0" vol="120" pan="0" />
          <note pos="1257" key="61" len="3" type="0" vol="120" pan="0" />
          <note pos="1272" key="62" len="3" type="0" vol="120" pan="0" />
          <note pos="1275" key="63" len="3" type="0" vol="120" pan="0" />
          <note pos="1278" key="64" len="3" type="0" vol="120" pan="0" />
          <note pos="1281" key="65" len="3" type="0" vol="120" pan="0" />
          <note pos="1296" key="66" len="3" type="0" vol="120" pan="0" />
          <note pos="1299" key="67" len="3" type="0" vol="120" pan="0" />
          <note pos="1302" key="66" len="3" type="0" vol="120" pan="0" />
          <note pos="1305" key="65" len="3" type="0" vol="120" pan="0" />
          <note pos="1320" key="64" len="3" type="0" vol="120" pan="0" />
          <note pos="1323" key="63" len="3" type="0" vol="120" pan="0" />
          <note pos="1326" key="62" len="3" type="0" vol="120" pan="0" />
          <note pos="1329" key="61" len="3" type="0" vol="120" pan="0" />
          <note pos="1344" key="60" len="3" type="0" vol="120" pan="0" />
          <note pos="1347" key="60" len="3" type="0" vol="120" pan="0" />
          <note pos="1350" key="61" len="3" type="0" vol="120" pan="0" />
          <note pos="1353" key="62" len="3" type="0" vol="120" pan="0" />
          <note pos="1368" key="63" len="3" type="0" vol="120" pan="0" />
          <note pos="1371" key="64" len="3" type="0" vol="120" pan="0" />
          <note pos="1374" key="65" len="3" type="0" vol="120" pan="0" />
          <note pos="1377" key="66" len="3" type="0" vol="120" pan="0" />
          <note pos="1392" key="67" len="3" type="0" vol="120" pan="0" />
          <note pos="1395" key="66" len="3" type="0" vol="120" pan="0" />
          <note pos="1398" key="65" len="3" type="0" vol="120" pan="0" />
          <note pos="1401" key="64" len="3" type="0" vol="120" pan="0" />
          <note pos="1416" key="63" len="3" type="0" vol="120" pan="0" />
          <note pos="1419" key="62" len="3" type="0" vol="120" pan="0" />
          <note pos="1422" key="61" len="3" type="0" vol="120" pan="0" />
          <note pos="1425" key="60" len="3" type="0" vol="120" pan="0" />
          <note pos="1440" key="60" len="3" type="0" vol="120" pan="0" />
          <note pos="1443" key="61" len="3" type="0" vol="120" pan="0" />
          <note pos="1446" key="62" len="3" type="0" vol="120" pan="0" />
          <note pos="1449" key="63" len="3" type="0" vol="120" pan="0" />
          <note pos="1464" key="64" len="3" type="0" vol="120" pan="0" />
          <note pos="1467" key="65" len="3" type="0" vol="120" pan="0" />
          <note pos="1470" key="66" len="3" type="0" vol="120" pan="0" />
          <note pos="1473" key="67" len="3" type="0" vol="120" pan="0" />
          <note pos="1488" key="66" len="3" type="0" vol="120" pan="0" />
          <note pos="1491" key="65" len="3" type="0" vol="120" pan="0" />
          <note pos="1494" key="64" len="3" type="0" vol="120" pan="0" />
          <note pos="1497" key="63" len="3" type="0" vol="120" pan="0" />
          <note pos="1512" key="62" len="3" type="0" vol="120" pan="0" />
          <note pos="1515" key="61" len="3" type="0" vol="120" pan="0" />
          <note pos="1518" key="60" len="3" type="0" vol="120" pan="0" />
          <note pos="1521" key="60" len="3" type="0" vol="120" pan="0" />
        </midiclip>
      </track>
      <track type="0" mutedBeforeSolo="0" name="Opening Ditty (Calliope)" muted="0" solo="0">
        <instrumenttrack pitchrange="1" range_import="1" enablecc="0" vol="100" pitch="0" pan="0" usemasterpitch="1" scale="0" basenote="57" keymap="0" mixch="0" lastkey="127" enabled="0" firstkey="0">
          <midicontrollers cc63="0" cc91="0" cc109="0" cc60="0" cc117="0" cc29="0" cc102="0" cc19="0" cc1="0" cc87="0" cc92="0" cc113="0" cc104="0" cc58="0" cc96="0" cc42="0" cc100="0" cc114="0" cc123="0" cc82="0" cc24="0" cc118="0" cc67="0" cc14="0" cc15="0" cc28="0" cc0="0" cc70="0" cc46="0" cc98="0" cc116="0" cc36="0" cc20="0" cc77="0" cc111="0" cc11="0" cc10="0" cc59="0" cc5="0" cc39="0" cc75="0" cc71="0" cc12="0" cc108="0" cc84="0" cc105="0" cc80="0" cc103="0" cc6="0" cc26="0" cc88="0" cc53="0" cc69="0" cc3="0" cc65="0" cc127="0" cc37="0" cc64="0" cc49="0" cc48="0" cc21="0" cc90="0" cc106="0" cc112="0" cc78="0" cc85="0" cc76="0" cc126="0" cc119="0" cc18="0" cc68="0" cc93="0" cc50="0" cc4="0" cc74="0" cc107="0" cc122="0" cc55="0" cc125="0" cc97="0" cc120="0" cc81="0" cc89="0" cc32="0" cc73="0" cc79="0" cc115="0" cc7="0" cc2="0" cc30="0" cc99="0" cc101="0" cc124="0" cc45="0" cc44="0" cc38="0" cc54="0" cc72="0" cc83="0" cc52="0" cc66="0" cc110="0" cc17="0" cc34="0" cc31="0" cc51="0" cc22="0" cc95="0" cc23="0" cc56="0" cc13="0" cc41="0" cc86="0" cc121="0" cc27="0" cc9="0" cc57="0" cc16="0" cc33="0" cc25="0" cc61="0" cc94="0" cc40="0" cc62="0" cc43="0" cc35="0" cc8="0" cc47="0" />
          <instrument name="sf2player">
            <sf2player gain="1" chorusNum="3" patch="82" src="/home/struktured/projects/lmms-ai/projects/dubstep_drops/soundfonts/nes_soundfont.sf2" chorusLevel="2" reverbRoomSize="0.2" chorusOn="0" chorusSpeed="0.30000001" reverbLevel="0.89999998" chorusDepth="8" reverbOn="0" bank="0" reverbDamping="0" reverbWidth="0.5">
              <key />
            </sf2player>
          </instrument>
          <eldata fres="0.5" fwet="0" fcut="14000" ftype="0">
            <elvol lspd_denominator="4" ctlenvamt="0" amt="0" att="0" latt="0" pdel="0" dec="0.5" lspd="0.1" lshp="0" sustain="0.5" rel="0.1" lpdel="0" userwavefile="" x100="0" lspd_syncmode="0" lspd_numerator="4" hold="0.5" lamt="0" />
            <elcut lspd_denominator="4" ctlenvamt="0" amt="0" att="0" latt="0" pdel="0" dec="0.5" lspd="0.1" lshp="0" sustain="0.5" rel="0.1" lpdel="0" userwavefile="" x100="0" lspd_syncmode="0" lspd_numerator="4" hold="0.5" lamt="0" />
            <elres lspd_denominator="4" ctlenvamt="0" amt="0" att="0" latt="0" pdel="0" dec="0.5" lspd="0.1" lshp="0" sustain="0.5" rel="0.1" lpdel="0" userwavefile="" x100="0" lspd_syncmode="0" lspd_numerator="4" hold="0.5" lamt="0" />
          </eldata>
          <chordcreator chord="0" chord-enabled="0" chordrange="1" />
          <arpeggiator arprange="1" arpdir="0" arpmode="0" arp-enabled="0" arptime_denominator="4" arp="0" arpgate="100" arpskip="0" arprepeats="1" arpcycle="0" arptime_numerator="4" arpmiss="0" arptime="100" arptime_syncmode="0" />
          <midiport fixedoutputnote="-1" outputprogram="1" readable="0" writable="0" fixedoutputvelocity="-1" basevelocity="127" outputchannel="1" inputcontroller="-1" inputchannel="0" fixedinputvelocity="-1" outputcontroller="-1" />
          <fxchain numofeffects="0" enabled="0" />
        </instrumenttrack>
      </track>
      <track type="0" mutedBeforeSolo="0" name="nes_soundfont" muted="0" solo="0">
        <instrumenttrack pitchrange="1" range_import="1" enablecc="0" vol="75" pitch="0" pan="0" usemasterpitch="1" scale="0" basenote="57" keymap="0" mixch="0" lastkey="127" enabled="0" firstkey="0">
          <midicontrollers cc63="0" cc91="0" cc109="0" cc60="0" cc117="0" cc29="0" cc102="0" cc19="0" cc1="0" cc87="0" cc92="0" cc113="0" cc104="0" cc58="0" cc96="0" cc42="0" cc100="0" cc114="0" cc123="0" cc82="0" cc24="0" cc118="0" cc67="0" cc14="0" cc15="0" cc28="0" cc0="0" cc70="0" cc46="0" cc98="0" cc116="0" cc36="0" cc20="0" cc77="0" cc111="0" cc11="0" cc10="0" cc59="0" cc5="0" cc39="0" cc75="0" cc71="0" cc12="0" cc108="0" cc84="0" cc105="0" cc80="0" cc103="0" cc6="0" cc26="0" cc88="0" cc53="0" cc69="0" cc3="0" cc65="0" cc127="0" cc37="0" cc64="0" cc49="0" cc48="0" cc21="0" cc90="0" cc106="0" cc112="0" cc78="0" cc85="0" cc76="0" cc126="0" cc119="0" cc18="0" cc68="0" cc93="0" cc50="0" cc4="0" cc74="0" cc107="0" cc122="0" cc55="0" cc125="0" cc97="0" cc120="0" cc81="0" cc89="0" cc32="0" cc73="0" cc79="0" cc115="0" cc7="0" cc2="0" cc30="0" cc99="0" cc101="0" cc124="0" cc45="0" cc44="0" cc38="0" cc54="0" cc72="0" cc83="0" cc52="0" cc66="0" cc110="0" cc17="0" cc34="0" cc31="0" cc51="0" cc22="0" cc95="0" cc23="0" cc56="0" cc13="0" cc41="0" cc86="0" cc121="0" cc27="0" cc9="0" cc57="0" cc16="0" cc33="0" cc25="0" cc61="0" cc94="0" cc40="0" cc62="0" cc43="0" cc35="0" cc8="0" cc47="0" />
          <instrument name="sf2player">
            <sf2player gain="1" chorusNum="3" patch="82" src="/home/struktured/projects/lmms-ai/projects/dubstep_drops/soundfonts/nes_soundfont.sf2" chorusLevel="2" reverbRoomSize="0.2" chorusOn="0" chorusSpeed="0.30000001" reverbLevel="0.89999998" chorusDepth="8" reverbOn="0" bank="0" reverbDamping="0" reverbWidth="0.5">
              <key />
            </sf2player>
          </instrument>
          <eldata fres="0.5" fwet="0" fcut="14000" ftype="0">
            <elvol lspd_denominator="4" ctlenvamt="0" amt="0" att="0" latt="0" pdel="0" dec="0.5" lspd="0.1" lshp="0" sustain="0.5" rel="0.1" lpdel="0" userwavefile="" x100="0" lspd_syncmode="0" lspd_numerator="4" hold="0.5" lamt="0" />
            <elcut lspd_denominator="4" ctlenvamt="0" amt="0" att="0" latt="0" pdel="0" dec="0.5" lspd="0.1" lshp="0" sustain="0.5" rel="0.1" lpdel="0" userwavefile="" x100="0" lspd_syncmode="0" lspd_numerator="4" hold="0.5" lamt="0" />
            <elres lspd_denominator="4" ctlenvamt="0" amt="0" att="0" latt="0" pdel="0" dec="0.5" lspd="0.1" lshp="0" sustain="0.5" rel="0.1" lpdel="0" userwavefile="" x100="0" lspd_syncmode="0" lspd_numerator="4" hold="0.5" lamt="0" />
          </eldata>
          <chordcreator chord="0" chord-enabled="0" chordrange="1" />
          <arpeggiator arprange="1" arpdir="0" arpmode="0" arp-enabled="0" arptime_denominator="4" arp="0" arpgate="100" arpskip="0" arprepeats="1" arpcycle="0" arptime_numerator="4" arpmiss="0" arptime="100" arptime_syncmode="0" />
          <midiport fixedoutputnote="-1" outputprogram="1" readable="0" writable="0" fixedoutputvelocity="-1" basevelocity="127" outputchannel="1" inputcontroller="-1" inputchannel="0" fixedinputvelocity="-1" outputcontroller="-1" />
          <fxchain numofeffects="0" enabled="0" />
        </instrumenttrack>
        <midiclip off="0" pos="0" len="768" type="1" steps="16" name="Opening Ditty (NES Square) - Converted" autoresize="1" muted="0">
          <note pos="0" key="55" len="72" type="0" vol="110" pan="0" />
          <note pos="96" key="52" len="72" type="0" vol="105" pan="0" />
          <note pos="192" key="55" len="48" type="0" vol="100" pan="0" />
          <note pos="264" key="52" len="48" type="0" vol="95" pan="0" />
          <note pos="336" key="50" len="36" type="0" vol="105" pan="0" />
          <note pos="384" key="50" len="36" type="0" vol="105" pan="0" />
          <note pos="432" key="50" len="36" type="0" vol="105" pan="0" />
          <note pos="480" key="50" len="36" type="0" vol="105" pan="0" />
          <note pos="528" key="50" len="24" type="0" vol="100" pan="0" />
          <note pos="552" key="51" len="24" type="0" vol="100" pan="0" />
          <note pos="576" key="52" len="24" type="0" vol="100" pan="0" />
          <note pos="600" key="50" len="24" type="0" vol="100" pan="0" />
          <note pos="624" key="50" len="12" type="0" vol="100" pan="0" />
          <note pos="648" key="52" len="24" type="0" vol="100" pan="0" />
          <note pos="672" key="52" len="48" type="0" vol="100" pan="0" />
          <note pos="720" key="50" len="48" type="0" vol="100" pan="0" />
        </midiclip>
        <midiclip off="0" pos="768" len="768" type="1" steps="16" name="Opening Ditty (NES Square) - Converted" autoresize="1" muted="0">
          <note pos="0" key="55" len="72" type="0" vol="110" pan="0" />
          <note pos="96" key="52" len="72" type="0" vol="105" pan="0" />
          <note pos="192" key="55" len="48" type="0" vol="100" pan="0" />
          <note pos="264" key="52" len="48" type="0" vol="95" pan="0" />
          <note pos="336" key="50" len="36" type="0" vol="105" pan="0" />
          <note pos="384" key="50" len="36" type="0" vol="105" pan="0" />
          <note pos="432" key="50" len="36" type="0" vol="105" pan="0" />
          <note pos="480" key="50" len="36" type="0" vol="105" pan="0" />
          <note pos="528" key="50" len="24" type="0" vol="100" pan="0" />
          <note pos="552" key="51" len="24" type="0" vol="100" pan="0" />
          <note pos="576" key="52" len="24" type="0" vol="100" pan="0" />
          <note pos="600" key="50" len="24" type="0" vol="100" pan="0" />
          <note pos="624" key="50" len="12" type="0" vol="100" pan="0" />
          <note pos="648" key="52" len="24" type="0" vol="100" pan="0" />
          <note pos="672" key="52" len="48" type="0" vol="100" pan="0" />
          <note pos="720" key="50" len="48" type="0" vol="100" pan="0" />
        </midiclip>
        <midiclip off="0" pos="1536" len="768" type="1" steps="16" name="Opening Ditty (NES Square) - Converted" autoresize="1" muted="0">
          <note pos="0" key="55" len="72" type="0" vol="110" pan="0" />
          <note pos="96" key="52" len="72" type="0" vol="105" pan="0" />
          <note pos="192" key="55" len="48" type="0" vol="100" pan="0" />
          <note pos="264" key="52" len="48" type="0" vol="95" pan="0" />
          <note pos="336" key="50" len="36" type="0" vol="105" pan="0" />
          <note pos="384" key="50" len="36" type="0" vol="105" pan="0" />
          <note pos="432" key="50" len="36" type="0" vol="105" pan="0" />
          <note pos="480" key="50" len="36" type="0" vol="105" pan="0" />
          <note pos="528" key="50" len="24" type="0" vol="100" pan="0" />
          <note pos="552" key="51" len="24" type="0" vol="100" pan="0" />
          <note pos="576" key="52" len="24" type="0" vol="100" pan="0" />
          <note pos="600" key="50" len="24" type="0" vol="100" pan="0" />
          <note pos="624" key="50" len="12" type="0" vol="100" pan="0" />
          <note pos="648" key="52" len="24" type="0" vol="100" pan="0" />
          <note pos="672" key="52" len="48" type="0" vol="100" pan="0" />
          <note pos="720" key="50" len="48" type="0" vol="100" pan="0" />
        </midiclip>
        <midiclip off="0" pos="2304" len="768" type="1" steps="16" name="Opening Ditty (NES Square) - Converted" autoresize="1" muted="0">
          <note pos="0" key="58" len="72" type="0" vol="110" pan="0" />
          <note pos="96" key="55" len="72" type="0" vol="105" pan="0" />
          <note pos="192" key="58" len="48" type="0" vol="100" pan="0" />
          <note pos="264" key="55" len="48" type="0" vol="95" pan="0" />
          <note pos="336" key="53" len="36" type="0" vol="105" pan="0" />
          <note pos="384" key="53" len="36" type="0" vol="105" pan="0" />
          <note pos="432" key="53" len="36" type="0" vol="105" pan="0" />
          <note pos="480" key="53" len="36" type="0" vol="105" pan="0" />
          <note pos="528" key="53" len="24" type="0" vol="100" pan="0" />
          <note pos="552" key="54" len="24" type="0" vol="100" pan="0" />
          <note pos="576" key="55" len="24" type="0" vol="100" pan="0" />
          <note pos="600" key="53" len="24" type="0" vol="100" pan="0" />
          <note pos="624" key="53" len="12" type="0" vol="100" pan="0" />
          <note pos="648" key="55" len="24" type="0" vol="100" pan="0" />
          <note pos="672" key="55" len="48" type="0" vol="100" pan="0" />
          <note pos="720" key="53" len="48" type="0" vol="100" pan="0" />
        </midiclip>
        <midiclip off="0" pos="3072" len="768" type="1" steps="16" name="Opening Ditty (NES Square) - Converted" autoresize="1" muted="0">
          <note pos="0" key="58" len="72" type="0" vol="110" pan="0" />
          <note pos="96" key="55" len="72" type="0" vol="105" pan="0" />
          <note pos="192" key="58" len="48" type="0" vol="100" pan="0" />
          <note pos="264" key="55" len="48" type="0" vol="95" pan="0" />
          <note pos="336" key="53" len="36" type="0" vol="105" pan="0" />
          <note pos="384" key="53" len="36" type="0" vol="105" pan="0" />
          <note pos="432" key="53" len="36" type="0" vol="105" pan="0" />
          <note pos="480" key="53" len="36" type="0" vol="105" pan="0" />
          <note pos="528" key="53" len="24" type="0" vol="100" pan="0" />
          <note pos="552" key="54" len="24" type="0" vol="100" pan="0" />
          <note pos="576" key="55" len="24" type="0" vol="100" pan="0" />
          <note pos="600" key="53" len="24" type="0" vol="100" pan="0" />
          <note pos="624" key="53" len="12" type="0" vol="100" pan="0" />
          <note pos="648" key="55" len="24" type="0" vol="100" pan="0" />
          <note pos="672" key="55" len="48" type="0" vol="100" pan="0" />
          <note pos="720" key="53" len="48" type="0" vol="100" pan="0" />
        </midiclip>
        <midiclip off="0" pos="3840" len="768" type="1" steps="16" name="Opening Ditty (NES Square) - Converted" autoresize="1" muted="0">
          <note pos="0" key="58" len="72" type="0" vol="110" pan="0" />
          <note pos="96" key="55" len="72" type="0" vol="105" pan="0" />
          <note pos="192" key="58" len="48" type="0" vol="100" pan="0" />
          <note pos="264" key="55" len="48" type="0" vol="95" pan="0" />
          <note pos="336" key="53" len="36" type="0" vol="105" pan="0" />
          <note pos="384" key="53" len="36" type="0" vol="105" pan="0" />
          <note pos="432" key="53" len="36" type="0" vol="105" pan="0" />
          <note pos="480" key="53" len="36" type="0" vol="105" pan="0" />
          <note pos="528" key="53" len="24" type="0" vol="100" pan="0" />
          <note pos="552" key="54" len="24" type="0" vol="100" pan="0" />
          <note pos="576" key="55" len="24" type="0" vol="100" pan="0" />
          <note pos="600" key="53" len="24" type="0" vol="100" pan="0" />
          <note pos="624" key="53" len="12" type="0" vol="100" pan="0" />
          <note pos="648" key="55" len="24" type="0" vol="100" pan="0" />
          <note pos="672" key="55" len="48" type="0" vol="100" pan="0" />
          <note pos="720" key="53" len="48" type="0" vol="100" pan="0" />
        </midiclip>
        <midiclip off="0" pos="4608" len="768" type="1" steps="16" name="Opening Ditty (NES Square) - Converted" autoresize="1" muted="0">
          <note pos="0" key="58" len="72" type="0" vol="110" pan="0" />
          <note pos="96" key="55" len="72" type="0" vol="105" pan="0" />
          <note pos="192" key="58" len="48" type="0" vol="100" pan="0" />
          <note pos="264" key="55" len="48" type="0" vol="95" pan="0" />
          <note pos="336" key="53" len="36" type="0" vol="105" pan="0" />
          <note pos="384" key="53" len="36" type="0" vol="105" pan="0" />
          <note pos="432" key="53" len="36" type="0" vol="105" pan="0" />
          <note pos="480" key="53" len="36" type="0" vol="105" pan="0" />
          <note pos="528" key="53" len="24" type="0" vol="100" pan="0" />
          <note pos="552" key="54" len="24" type="0" vol="100" pan="0" />
          <note pos="576" key="55" len="24" type="0" vol="100" pan="0" />
          <note pos="600" key="53" len="24" type="0" vol="100" pan="0" />
          <note pos="624" key="53" len="12" type="0" vol="100" pan="0" />
          <note pos="648" key="55" len="24" type="0" vol="100" pan="0" />
          <note pos="672" key="55" len="48" type="0" vol="100" pan="0" />
          <note pos="720" key="53" len="48" type="0" vol="100" pan="0" />
        </midiclip>
      </track>
      <track type="0" mutedBeforeSolo="0" name="Transition Sweep" muted="0" solo="0">
        <instrumenttrack pitchrange="24" range_import="1" enablecc="0" pan="0" usemasterpitch="1" scale="0" basenote="57" keymap="0" mixch="0" lastkey="127" enabled="0" firstkey="0">
          <vol scale_type="linear" id="8037838" value="70.364586" />
          <pitch scale_type="linear" id="1094704" value="2400" />
          <midicontrollers cc63="0" cc91="0" cc109="0" cc60="0" cc117="0" cc29="0" cc102="0" cc19="0" cc1="0" cc87="0" cc92="0" cc113="0" cc104="0" cc58="0" cc96="0" cc42="0" cc100="0" cc114="0" cc123="0" cc82="0" cc24="0" cc118="0" cc67="0" cc14="0" cc15="0" cc28="0" cc0="0" cc70="0" cc46="0" cc98="0" cc116="0" cc36="0" cc20="0" cc77="0" cc111="0" cc11="0" cc10="0" cc59="0" cc5="0" cc39="0" cc75="0" cc71="0" cc12="0" cc108="0" cc84="0" cc105="0" cc80="0" cc103="0" cc6="0" cc26="0" cc88="0" cc53="0" cc69="0" cc3="0" cc65="0" cc127="0" cc37="0" cc64="0" cc49="0" cc48="0" cc21="0" cc90="0" cc106="0" cc112="0" cc78="0" cc85="0" cc76="0" cc126="0" cc119="0" cc18="0" cc68="0" cc93="0" cc50="0" cc4="0" cc74="0" cc107="0" cc122="0" cc55="0" cc125="0" cc97="0" cc120="0" cc81="0" cc89="0" cc32="0" cc73="0" cc79="0" cc115="0" cc7="0" cc2="0" cc30="0" cc99="0" cc101="0" cc124="0" cc45="0" cc44="0" cc38="0" cc54="0" cc72="0" cc83="0" cc52="0" cc66="0" cc110="0" cc17="0" cc34="0" cc31="0" cc51="0" cc22="0" cc95="0" cc23="0" cc56="0" cc13="0" cc41="0" cc86="0" cc121="0" cc27="0" cc9="0" cc57="0" cc16="0" cc33="0" cc25="0" cc61="0" cc94="0" cc40="0" cc62="0" cc43="0" cc35="0" cc8="0" cc47="0" />
          <instrument name="tripleoscillator">
            <tripleoscillator pan0="0" useWaveTable1="1" finel1="0" wavetype1="2" stphdetun2="0" vol2="80" vol1="50" finer0="0" finel2="0" finel0="0" stphdetun1="0" finer2="0" phoffset2="0" stphdetun0="0" coarse2="0" modalgo3="2" phoffset1="0" vol0="100" finer1="0" pan1="0" pan2="0" coarse0="0" modalgo2="2" coarse1="12" useWaveTable2="1" wavetype0="2" userwavefile0="" userwavefile1="" userwavefile2="" phoffset0="0" modalgo1="2" wavetype2="2" useWaveTable3="1">
              <key />
            </tripleoscillator>
          </instrument>
          <eldata fres="0.69999999" fwet="1" fcut="8000" ftype="1">
            <elvol lspd_denominator="4" ctlenvamt="0" amt="0" att="0" latt="0" pdel="0" dec="0.5" lspd="0.1" lshp="0" sustain="0.5" rel="0.1" lpdel="0" userwavefile="" x100="0" lspd_syncmode="0" lspd_numerator="4" hold="0.5" lamt="0" />
            <elcut lspd_denominator="4" ctlenvamt="0" amt="0" att="0" latt="0" pdel="0" dec="0.5" lspd="0.1" lshp="0" sustain="0.5" rel="0.1" lpdel="0" userwavefile="" x100="0" lspd_syncmode="0" lspd_numerator="4" hold="0.5" lamt="0" />
            <elres lspd_denominator="4" ctlenvamt="0" amt="0" att="0" latt="0" pdel="0" dec="0.5" lspd="0.1" lshp="0" sustain="0.5" rel="0.1" lpdel="0" userwavefile="" x100="0" lspd_syncmode="0" lspd_numerator="4" hold="0.5" lamt="0" />
          </eldata>
          <chordcreator chord="0" chord-enabled="0" chordrange="1" />
          <arpeggiator arprange="1" arpdir="0" arpmode="0" arp-enabled="0" arptime_denominator="4" arp="0" arpgate="100" arpskip="0" arprepeats="1" arpcycle="0" arptime_numerator="4" arpmiss="0" arptime="100" arptime_syncmode="0" />
          <midiport fixedoutputnote="-1" outputprogram="1" readable="0" writable="0" fixedoutputvelocity="-1" basevelocity="127" outputchannel="1" inputcontroller="-1" inputchannel="0" fixedinputvelocity="-1" outputcontroller="-1" />
          <fxchain numofeffects="3" enabled="1">
            <effect autoquit_numerator="4" wet="0.64999998" autoquit_denominator="4" name="reverbsc" autoquit_syncmode="0" autoquit="1" on="1">
              <ReverbSCControls input_gain="0" color="10000" output_gain="0" size="0.88999999" />
              <key />
            </effect>
            <effect autoquit_numerator="4" wet="0.40000001" autoquit_denominator="4" name="delay" autoquit_syncmode="0" autoquit="1" on="1">
              <Delay LfoAmount="0" DelayTimeSamples_numerator="4" DelayTimeSamples_denominator="4" LfoFrequency="2" LfoAmount_syncmode="0" LfoAmount_numerator="4" LfoFrequency_syncmode="0" LfoFrequency_numerator="4" OutGain="0" FeebackAmount="0" LfoAmount_denominator="4" DelayTimeSamples="0.5" DelayTimeSamples_syncmode="0" LfoFrequency_denominator="4" />
              <key />
            </effect>
            <effect autoquit_numerator="4" wet="0.75" autoquit_denominator="4" name="stereoenhancer" autoquit_syncmode="0" autoquit="1" on="1">
              <stereoenhancercontrols width="0.5" />
              <key />
            </effect>
          </fxchain>
        </instrumenttrack>
        <midiclip off="0" pos="5376" len="1920" type="1" steps="16" name="Sweep Down" autoresize="1" muted="0">
          <note pos="0" key="43" len="1920" type="0" vol="110" pan="0" />
        </midiclip>
        <midiclip off="0" pos="7296" len="1536" type="1" steps="16" name="Sweep Down" autoresize="1" muted="0">
          <note pos="0" key="43" len="1536" type="0" vol="110" pan="0" />
        </midiclip>
        <midiclip off="0" pos="9984" len="1536" type="1" steps="16" name="Sweep Down" autoresize="1" muted="0">
          <note pos="0" key="39" len="1536" type="0" vol="110" pan="0" />
        </midiclip>
      </track>
      <track type="5" mutedBeforeSolo="0" name="Sweep Pitch" muted="0" solo="0">
        <automationtrack />
        <automationclip pos="5376" off="0" len="1920" prog="1" mute="0" name="Pitch Sweep" autoresize="1" tens="1">
          <time pos="0" outTan="0" lockedTan="0" inTan="0" outValue="5000" value="5000" />
          <time pos="1920" outTan="0" lockedTan="0" inTan="0" outValue="0" value="0" />
          <object id="1094704" />
        </automationclip>
        <automationclip pos="7296" off="0" len="1536" prog="1" mute="0" name="Pitch Sweep" autoresize="1" tens="1">
          <time pos="0" outTan="0" lockedTan="0" inTan="0" outValue="5000" value="5000" />
          <time pos="1920" outTan="0" lockedTan="0" inTan="0" outValue="0" value="0" />
          <object id="1094704" />
        </automationclip>
        <automationclip pos="9984" off="0" len="1536" prog="1" mute="0" name="Pitch Sweep" autoresize="1" tens="1">
          <time pos="0" outTan="0" lockedTan="0" inTan="0" outValue="5000" value="5000" />
          <time pos="1920" outTan="0" lockedTan="0" inTan="0" outValue="0" value="0" />
          <object id="1094704" />
        </automationclip>
      </track>
      <track type="5" mutedBeforeSolo="0" name="Sweep Filter" muted="0" solo="0">
        <automationtrack />
        <automationclip pos="5376" off="0" len="1920" prog="1" mute="0" name="Filter Sweep" autoresize="1" tens="1">
          <time pos="0" outTan="0" lockedTan="0" inTan="0" outValue="100" value="100" />
          <time pos="1920" outTan="0" lockedTan="0" inTan="0" outValue="5" value="5" />
        </automationclip>
        <automationclip pos="7296" off="0" len="1536" prog="1" mute="0" name="Filter Sweep" autoresize="1" tens="1">
          <time pos="0" outTan="0" lockedTan="0" inTan="0" outValue="100" value="100" />
          <time pos="1920" outTan="0" lockedTan="0" inTan="0" outValue="5" value="5" />
        </automationclip>
        <automationclip pos="9984" off="0" len="1536" prog="1" mute="0" name="Filter Sweep" autoresize="1" tens="1">
          <time pos="0" outTan="0" lockedTan="0" inTan="0" outValue="100" value="100" />
          <time pos="1920" outTan="0" lockedTan="0" inTan="0" outValue="5" value="5" />
        </automationclip>
      </track>
      <track type="5" mutedBeforeSolo="0" name="Sweep Volume" muted="0" solo="0">
        <automationtrack />
        <automationclip pos="5376" off="0" len="1920" prog="1" mute="0" name="Volume Fade" autoresize="1" tens="1">
          <time pos="0" outTan="0" lockedTan="0" inTan="0" outValue="100" value="100" />
          <time pos="1920" outTan="0" lockedTan="0" inTan="0" outValue="0" value="0" />
          <object id="8037838" />
        </automationclip>
        <automationclip pos="7296" off="0" len="1536" prog="1" mute="0" name="Volume Fade" autoresize="1" tens="1">
          <time pos="0" outTan="0" lockedTan="0" inTan="0" outValue="100" value="100" />
          <time pos="1920" outTan="0" lockedTan="0" inTan="0" outValue="0" value="0" />
          <object id="8037838" />
        </automationclip>
        <automationclip pos="9984" off="0" len="1536" prog="1" mute="0" name="Volume Fade" autoresize="1" tens="1">
          <time pos="0" outTan="0" lockedTan="0" inTan="0" outValue="100" value="100" />
          <time pos="1920" outTan="0" lockedTan="0" inTan="0" outValue="0" value="0" />
          <object id="8037838" />
        </automationclip>
      </track>
    </trackcontainer>
    <mixer x="5" height="389" y="310" minimized="0" width="607" maximized="0" visible="1">
      <mixerchannel soloed="0" num="0" volume="1" name="Master" muted="0">
        <fxchain numofeffects="0" enabled="0" />
      </mixerchannel>
    </mixer>
    <ControllerRackView x="680" height="200" y="310" minimized="0" width="350" maximized="0" visible="1" />
    <pianoroll x="608" height="485" y="470" minimized="0" stopbehaviour="0" width="970" maximized="0" visible="1" />
    <automationeditor x="1030" height="480" y="1" minimized="0" width="860" maximized="0" visible="0" />
    <projectnotes x="700" height="300" y="10" minimized="0" width="804" maximized="0" visible="0">&lt;!DOCTYPE HTML PUBLIC "-//W3C//DTD HTML 4.0//EN" "http://www.w3.org/TR/REC-html40/strict.dtd"&gt;
&lt;html&gt;&lt;head&gt;&lt;meta name="qrichtext" content="1" /&gt;&lt;style type="text/css"&gt;
p, li { white-space: pre-wrap; }
&lt;/style&gt;&lt;/head&gt;&lt;body style=" font-family:'Noto Sans'; font-size:10pt; font-weight:400; font-style:normal;"&gt;
&lt;p style="-qt-paragraph-type:empty; margin-top:0px; margin-bottom:0px; margin-left:0px; margin-right:0px; -qt-block-indent:0; text-indent:0px;"&gt;&lt;br /&gt;&lt;/p&gt;&lt;/body&gt;&lt;/html&gt;</projectnotes>
    <timeline lp1pos="3072" lp0pos="1584" stopbehaviour="1" lpstate="0" />
    <controllers />
    <scales>
      <scale description="empty">
        <interval den="1" num="1" />
      </scale>
      <scale description="empty">
        <interval den="1" num="1" />
      </scale>
      <scale description="empty">
        <interval den="1" num="1" />
      </scale>
      <scale description="empty">
        <interval den="1" num="1" />
      </scale>
      <scale description="empty">
        <interval den="1" num="1" />
      </scale>
      <scale description="empty">
        <interval den="1" num="1" />
      </scale>
      <scale description="empty">
        <interval den="1" num="1" />
      </scale>
      <scale description="empty">
        <interval den="1" num="1" />
      </scale>
      <scale description="empty">
        <interval den="1" num="1" />
      </scale>
      <scale description="empty">
        <interval den="1" num="1" />
      </scale>
    </scales>
    <keymaps>
      <keymap middle_key="60" base_freq="440" last_key="127" description="empty" base_key="69" first_key="0" />
      <keymap middle_key="60" base_freq="440" last_key="127" description="empty" base_key="69" first_key="0" />
      <keymap middle_key="60" base_freq="440" last_key="127" description="empty" base_key="69" first_key="0" />
      <keymap middle_key="60" base_freq="440" last_key="127" description="empty" base_key="69" first_key="0" />
      <keymap middle_key="60" base_freq="440" last_key="127" description="empty" base_key="69" first_key="0" />
      <keymap middle_key="60" base_freq="440" last_key="127" description="empty" base_key="69" first_key="0" />
      <keymap middle_key="60" base_freq="440" last_key="127" description="empty" base_key="69" first_key="0" />
      <keymap middle_key="60" base_freq="440" last_key="127" description="empty" base_key="69" first_key="0" />
      <keymap middle_key="60" base_freq="440" last_key="127" description="empty" base_key="69" first_key="0" />
      <keymap middle_key="60" base_freq="440" last_key="127" description="empty" base_key="69" first_key="0" />
    </keymaps>
  </song>
</lmms-project>